<svg id="Layer_1" data-name="Layer 1" xmlns="http://www.w3.org/2000/svg" viewBox="0 0 175.56 103.92"><defs><style>.cls-1{fill:#6aa744;}.cls-2{fill:#3cb4e7;}.cls-3{fill:#a5cf4c;}.cls-4{fill:#f27179;}.cls-5{fill:#ffcd67;}</style></defs><path class="cls-1" d="M356,307.1h7.65v-17H356Zm34.05-10.8.86-6.15H367l-.87,6.15h13V319h7.57V296.3Zm24.57,13.11,3.05-19.26h-7.52l-3.59,22.67h-5.13l0-22.67h-7.71l.23,22.67h-3.83l-1,6.15h15.19c3.21,0,5.63-.83,7.27-2.47s2.49-3.87,3-7.09m24.16-13.14v5.47h-6l.86-5.47Zm10.43,0,1-6.15H435.87c-3.2,0-5.62.83-7.26,2.47s-2.5,3.87-3,7.09l-3.05,19.26h7.52l1.82-11.48h6.89v11.48h7.71l-.22-22.67Zm18.38,17.09h-7.3V295.77h7.3Zm7.5-.89V296.65q0-6.56-6.4-6.55H452.65v6.55h0v15.82h0v6.44h4.87A10.34,10.34,0,0,0,459,319h9.66q6.41,0,6.4-6.55M486,290.1H478.3v28.81H486Z" transform="translate(-333.52 -237.8)"/><path class="cls-2" d="M335,328.09h-1.43v-2.44h4.61v15.91H335Zm4.91,11h1.8v-11H340v-2.44h4.82v14.58c0,.93-.37,1.33-1.27,1.33h-3.71Zm8.38-11h-1.8v-2.44h5v8.59h-3.18Zm15.5,2.73v10.74H358.2v-2.44h2.36v-8.8c0-2-.53-2.23-1.41-2.23l-2.94,13.47h-3.1l2-8.38-2.1-7.53h2.92l.66,2.68h.06l.55-2.68h2.47C362.39,325.65,363.74,326.87,363.74,330.82Zm10.65,8.3v2.44h-9v-2.44h4.5v-11h-4.5v-2.44h7.68v13.47Zm13.4-11H386.5v13.47h-3.18V328.09h-4.46v-2.44h8.93Zm11.88,3.05v10.42h-3.18V331c0-2.54-.4-2.94-1.69-2.94h-2.1v13.47h-3.18V325.65h6.18C398.82,325.65,399.67,326.87,399.67,331.14Zm3-3.05h-1.43v-2.44h4.61v15.91h-3.18Zm6.58,0h-1.8v-2.44h5v8.59h-3.18Zm15.5,2.73v10.74h-5.54v-2.44h2.36v-8.8c0-2-.53-2.23-1.41-2.23l-2.94,13.47h-3.1l2-8.38-2.1-7.53h2.92l.66,2.68h.05l.56-2.68h2.47C423.37,325.65,424.72,326.87,424.72,330.82Zm9.91,0c0-2-.59-2.73-2.07-2.73h-2.78v-2.44h3.76c3,0,4.27,1.51,4.27,5.44v10.47h-3.18Zm16.34-.45v11.19h-11.1V325.65h3.18v13.47h4.74V329.5c0-1.17-.05-1.46-.47-1.51l-1,3.76-2.57-.64,1.48-5.46h2.68C450.34,325.65,451,327.11,451,330.37Zm3.3-2.28h-1.81v-2.44h5v8.59h-3.18Zm5.13,9.09V325.65h9.78v11.53c0,3.13-1.75,4.53-4.9,4.53S459.4,340.31,459.4,337.18Zm6.6-.47v-8.62h-3.42v8.62c0,1.77.29,2.57,1.7,2.57S466,338.48,466,336.71Zm6.46-8.62h-1.8v-2.44h5v8.59h-3.18Zm13.84,11v2.44h-9v-2.44h4.5v-11h-4.5v-2.44H485v13.47Zm2.41-11H486.9v-2.44h5v8.59h-3.18Zm6.54,0h-1.81v-2.44h5v8.59h-3.18Zm13.83,11v2.44h-9v-2.44h4.51v-11h-4.51v-2.44h7.69v13.47Z" transform="translate(-333.52 -237.8)"/><path class="cls-3" d="M458.69,267.78s-11.55-3.19-18.41.77-6.08,11.75-5.82,12.81l.4.68s6.9,5.18,14,1.29c6.5-3.58,9.87-15.55,9.87-15.55" transform="translate(-333.52 -237.8)"/><path class="cls-3" d="M407,268.4c-6.35-3.84-18.4-.77-18.4-.77s3,11.6,9.87,15.55,13.22-.6,14-1.36l.4-.69s1-8.56-5.87-12.73" transform="translate(-333.52 -237.8)"/><path class="cls-1" d="M425.15,260.14c-.32.22-1,.8-1.88,1.55s-1.21,1.29-1.35,2a.92.92,0,0,0,.31.86,2.24,2.24,0,0,0,1,.22c.71.14,1.38.22,1.5,1.8a4.42,4.42,0,0,1-1,3,4.23,4.23,0,0,1-3.19,1.11,1.78,1.78,0,0,1-1.88-1.8c-.11-.39-.06-.72-.38-1a1.77,1.77,0,0,0-.89,0,4.89,4.89,0,0,0,1.51,4.19,7.52,7.52,0,0,0,4.86,2.15l1,.1a10.18,10.18,0,0,1,.9,1.57,10.42,10.42,0,0,1,.62,2.06c.18.79,1,.59.85-.11a23.14,23.14,0,0,1-.62-3.46,4.53,4.53,0,0,0,1.88-1.11,4.15,4.15,0,0,0,1-4.25c-.54-1.49-1.23-3.2-2.2-5.33a6.54,6.54,0,0,1-2.05-3.64" transform="translate(-333.52 -237.8)"/><path class="cls-4" d="M428.43,253.67l2.84-2.44.31-.2.1-.06a2.4,2.4,0,0,1-.26-.86c-.16-.93-.26-1.31-1.08-1.21a3.62,3.62,0,0,0-2.48,1.16,4.25,4.25,0,0,0-1.23,2.42c-.18.85,1.19,1.14,1.19,1.14a2.16,2.16,0,0,0,.61,0" transform="translate(-333.52 -237.8)"/><path class="cls-4" d="M442.63,260.6c-.41-.17-2.12-1-2.12-1l-.06-1a8,8,0,0,0-2.11-4.91,5.39,5.39,0,0,0-4.8-1.48,11.14,11.14,0,0,0-4.31,1.77,1.25,1.25,0,0,1,.39,1.39A5.28,5.28,0,0,1,428,258a11.69,11.69,0,0,1-2,1.61,5.57,5.57,0,0,0,.34,1.47l.5.29a1.4,1.4,0,0,1,.7.61l.42.65a5.5,5.5,0,0,0,.88,1.12c.07.1.25.14.32.25a2.75,2.75,0,0,0,1.1.51,2.56,2.56,0,0,0-.35-1l-.07-.11a4.43,4.43,0,0,0-1.19-1.37l-.85-.36c-.25-.15-.28-.44-.49-.76l-.32-.71s2.84,1.53,3.33,1.82c1.67.91,4.86,2,5.11,2.2a3.92,3.92,0,0,0,3.47-1,3,3,0,0,0,1.16-2l0-.18.11-.07a9.26,9.26,0,0,1,2.35.31c.61.15.55-.46.14-.63" transform="translate(-333.52 -237.8)"/><path class="cls-5" d="M423.19,269.35a3,3,0,0,1-2.56.8c-1.28-.08-1.4-.86-1.53-1.54a1.67,1.67,0,0,0-.57-1.22,1.65,1.65,0,0,0-1.11,0,10.65,10.65,0,0,1,2.4-4.92l-.21-.33c-.83.85-4.16,4.69-4.27,4.76a2.4,2.4,0,0,1-1.75.84,5,5,0,0,1-1.6-.34,36.9,36.9,0,0,1-3.47-2.5l-3.95-3.26a3,3,0,0,1-1.09-1.44A1.37,1.37,0,0,1,404,259a1.26,1.26,0,0,1,.47-.45,17.13,17.13,0,0,1,8.91-2.57A21.56,21.56,0,0,1,421,257c.37,1.75,2.82,2.46,3.78,2.76a8.2,8.2,0,0,0-1.86,1.47,4.38,4.38,0,0,0-1.57,2.53,1.93,1.93,0,0,0,.22,1.05c.21.33.77.44,1.13.51.71.15,1.49,0,1.51,1.21a4,4,0,0,1-1,2.83" transform="translate(-333.52 -237.8)"/><path class="cls-2" d="M426.92,237.82a2,2,0,0,0-1.39.44,15.86,15.86,0,0,0-1.85,2.58,20.69,20.69,0,0,0-1.51,6.65,41.49,41.49,0,0,0,.7,7.21c0,.28.17.5.2.79l0,.17a2.92,2.92,0,0,0-.5-.29.75.75,0,0,0-1,.23c-.29.33-.1,1.22-.1,1.22.44,1.86,3.64,2.54,3.93,2.51a12.62,12.62,0,0,0,2-1.62,4.48,4.48,0,0,0,1.57-2.54c.07-.36.08-.82-.17-1a.28.28,0,0,0-.36-.08,3.62,3.62,0,0,1-2-.7.86.86,0,0,1-.24-1.07,6,6,0,0,1,1.31-2.69,5,5,0,0,1,2.76-1.18c1.25-.2,1.35.66,1.45,1.51a2.37,2.37,0,0,0,.27.9l1.22-.95a2.86,2.86,0,0,0,.65-3.49c-.21-.32-1-1.5-2.59-3.52l-3.06-4a2.25,2.25,0,0,0-1.34-1.12" transform="translate(-333.52 -237.8)"/><path class="cls-1" d="M418.15,243.6c1.16-.31.57,1.49.65,1.79l2.3,8.58a.18.18,0,0,0,.15.15s.48,0,.36.13a1.18,1.18,0,0,1-.88.27c-.48,0,0-.27,0-.27a.17.17,0,0,0,.06-.2l-2.3-8.58c-.08-.29-.75-1.39-.34-1.87" transform="translate(-333.52 -237.8)"/><path class="cls-1" d="M409.44,252.36c.56-.46,1.57.26,1.87.34l8.58,2.3a.17.17,0,0,0,.2-.05s.24-.4.3-.24a1.15,1.15,0,0,1-.2.86c-.23.41-.23-.13-.23-.13s0-.1-.15-.14l-8.58-2.3c-.3-.08-2.09.46-1.79-.64" transform="translate(-333.52 -237.8)"/><path class="cls-1" d="M422.61,255.15a1.39,1.39,0,0,0-.33-.54,1.28,1.28,0,1,0-1.81,1.81,1.61,1.61,0,0,0,.54.33,1.14,1.14,0,0,1,1.6-1.6" transform="translate(-333.52 -237.8)"/></svg>