<svg width="134" height="60" viewBox="0 0 134 60" fill="none" xmlns="http://www.w3.org/2000/svg">
<g clip-path="url(#clip0)">
<path d="M16.9004 30.6001C17.4004 31.8001 17.7004 33.4001 17.9004 35.0001V43.0001H11.6004C11.6004 43.0001 11.1004 40.7001 10.9004 40.0001C10.0004 35.0001 4.30039 30.2001 1.90039 23.7001C-0.0996094 18.4001 0.000390626 13.9001 -0.0996094 7.70007C-0.0996094 6.30007 0.500391 4.20007 1.90039 4.60007C3.10039 4.80007 3.40039 5.90007 3.40039 7.00007C3.60039 11.4001 4.10039 14.8001 5.90039 19.2001C7.90039 24.1001 10.4004 26.0001 12.6004 26.9001C13.9004 27.4001 16.2004 28.9001 16.9004 30.6001Z" fill="#02673F"/>
<path d="M25.3 43H19V35C19.2 33.4 19.5 31.8 20 30.6C20.7 28.9 23 27.4 24.3 26.9C26.5 26 29 24.1 31 19.2C32.8 14.8 33.2 11.4 33.5 7.00003C33.6 5.90003 33.9 4.80003 35 4.60003C36.4 4.30003 37 6.30003 37 7.70003C36.9 13.9 37 18.4 35 23.7C32.6 30.1 26.9 35 26 40C25.9 40.7 25.3 43 25.3 43Z" fill="#02673F"/>
<path d="M18.7004 13.8C18.4004 13.8 17.6004 13.8 16.7004 13.9C15.8004 14.1 15.1004 14.4 14.7004 14.8C14.5004 15 14.4004 15.2 14.4004 15.3C14.4004 15.5 14.6004 15.7 14.9004 15.9C15.3004 16.3 15.9004 16.8 15.3004 17.8C14.7004 18.7 14.1004 19.2 13.4004 19.4C12.7004 19.5 11.9004 19.3 11.0004 18.6C10.1004 17.9 10.4004 17.3 10.7004 16.7C10.8004 16.4 11.0004 16.2 10.9004 15.9C10.8004 15.7 10.7004 15.6 10.4004 15.5H10.3004C9.40043 16.6 9.10043 17.7 9.30043 19C9.50043 20.3 10.3004 21.5 11.5004 22.5L12.1004 23L12.0004 24.4C11.9004 25 11.7004 25.5 11.5004 26C11.7004 26.1 11.9004 26.1 12.1004 26.3C12.1004 26.2 12.1004 26.2 12.2004 26.1C12.5004 25 12.9004 24.2 13.2004 23.8C13.7004 24 14.3004 24 14.9004 23.9C15.0004 23.9 15.0004 23.9 15.1004 23.8C16.3004 23.5 17.0004 22.8 17.4004 21.6C17.7004 20.4 18.0004 19 18.3004 17.2C17.9004 15.8 18.5004 14.2 18.7004 13.8Z" fill="#66AA44"/>
<path d="M23.1991 11.4001L26.1991 11.0001H26.4991H26.5991C26.5991 10.8001 26.6991 10.5001 26.7991 10.3001C27.0991 9.6001 27.1991 9.3001 26.5991 9.0001C25.7991 8.6001 25.0991 8.5001 24.3991 8.7001C23.6991 8.8001 23.0991 9.2001 22.4991 9.8001C21.9991 10.3001 22.2991 10.6001 22.7991 11.1001C22.8991 11.1001 22.9991 11.3001 23.1991 11.4001Z" fill="#E33178"/>
<path d="M29.3996 21.7002C29.2996 21.6002 29.1996 21.4002 29.0996 21.2002L28.4996 20.1002L28.8996 19.4002C29.5996 17.9002 29.8996 16.6002 29.5996 15.3002C29.2996 14.0002 28.4996 12.9002 27.0996 12.3002C26.1996 11.9002 24.9996 11.7002 23.4996 11.7002C23.5996 12.0002 23.5996 12.4002 23.1996 12.7002C22.6996 13.2002 21.9996 13.5002 20.9996 13.7002C20.0996 13.9002 19.2996 13.9002 18.9996 13.9002C18.8996 14.1002 18.6996 14.5002 18.5996 15.0002L18.7996 15.4002C18.9996 15.7002 18.9996 15.9002 18.9996 16.1002V16.7002C18.9996 17.1002 18.9996 17.4002 19.0996 17.8002C19.0996 17.9002 19.1996 18.0002 19.1996 18.1002C19.2996 18.4002 19.4996 18.7002 19.6996 18.9002C19.7996 18.7002 19.8996 18.4002 19.8996 18.1002V18.0002C19.8996 17.5002 19.8996 17.1002 19.6996 16.6002L19.2996 16.0002C19.1996 15.8002 19.2996 15.6002 19.2996 15.3002L19.3996 14.7002L20.0996 16.1002C20.2996 16.5002 20.5996 16.9002 20.7996 17.3002C21.4996 18.6002 22.2996 19.6002 22.8996 20.5002C22.9996 20.6002 23.0996 20.7002 23.1996 20.9002C23.8996 21.6002 24.6996 21.8002 25.7996 21.7002H25.8996C26.4996 21.6002 26.9996 21.3002 27.4996 20.9002L27.5996 20.8002H27.6996C28.0996 21.0002 28.5996 21.4002 29.0996 22.0002C29.1996 22.0002 29.2996 21.8002 29.3996 21.7002Z" fill="#E33178"/>
<path d="M13.3001 19.3001C12.6001 19.4001 11.9001 19.2001 11.1001 18.6001C10.3001 18.0001 10.6001 17.5001 10.8001 17.0001C11.0001 16.7001 11.1001 16.4001 11.0001 16.1001C10.9001 15.9001 10.7001 15.7001 10.4001 15.6001C10.4001 15.5001 10.5001 15.5001 10.5001 15.5001C11.3001 14.7001 12.4001 14.0001 14.0001 13.4001V13.1001C13.1001 13.3001 12.0001 13.6001 10.8001 14.0001L10.0001 14.2001L9.50006 14.3001C9.40006 14.3001 9.30006 14.4001 9.20006 14.4001C8.60006 14.5001 8.10006 14.5001 7.70006 14.2001C7.40006 14.0001 7.10006 13.7001 6.80006 13.3001C6.70006 13.1001 6.40006 12.5001 5.60006 10.2001L4.40006 6.40006C4.20006 5.80006 4.20006 5.30006 4.30006 5.00006C4.40006 4.70006 4.70006 4.50006 5.20006 4.40006C5.40006 4.30006 5.50006 4.30006 5.70006 4.30006C6.30006 4.20006 6.90006 4.20006 7.70006 4.40006C9.10006 4.60006 10.8001 5.30006 12.6001 6.40006C14.3001 7.40006 15.8001 8.70006 17.1001 10.3001C16.6001 11.6001 17.9001 13.1001 18.4001 13.7001C18.0001 13.7001 17.3001 13.7001 16.6001 13.9001C15.6001 14.1001 14.9001 14.4001 14.5001 14.9001C14.3001 15.2001 14.2001 15.4001 14.2001 15.6001C14.2001 15.9001 14.5001 16.2001 14.7001 16.4001C15.1001 16.8001 15.6001 17.2001 15.1001 18.0001C14.6001 18.7001 14.0001 19.2001 13.3001 19.3001Z" fill="#F5DF1D"/>
<path d="M29.1005 0.3C28.9005 0.1 28.5005 0 28.0005 0C27.9005 0 27.7005 0 27.6005 0.1C27.0005 0.2 26.4005 0.5 25.7005 0.9C24.5005 1.7 23.2005 2.9 21.9005 4.6C21.6005 5 21.3005 5.5 21.0005 5.9C20.3005 7 19.7005 8.3 19.3005 9.6C19.2005 9.8 19.2005 10 19.1005 10.2L19.0005 10.3L18.8005 9.9C18.7005 9.6 18.6005 9.6 18.6005 9.6C18.6005 9.5 18.6005 9.5 18.6005 9.4C18.5005 9.4 18.4005 9.4 18.4005 9.4C18.2005 9.4 18.0005 9.6 17.8005 9.8C17.8005 9.9 17.8005 10 17.8005 10.1V10.8L17.6005 10.5L17.5005 10.4C17.0005 11.8 18.8005 13.6 19.0005 13.7C19.2005 13.7 20.1005 13.7 21.0005 13.5C22.0005 13.3 22.7005 13 23.1005 12.5C23.3005 12.3 23.5005 12 23.4005 11.8C23.4005 11.7 23.3005 11.6 23.2005 11.6C23.1005 11.5 22.3005 10.9 22.2005 10.3C22.1005 10 22.2005 9.7 22.5005 9.5C23.1005 8.9 23.8005 8.5 24.5005 8.3C25.2005 8.2 26.0005 8.3 26.8005 8.7C27.7005 9.1 27.4005 9.7 27.1005 10.3C27.0005 10.5 26.9005 10.8 26.9005 11H27.1005L27.8005 10.9C27.9005 10.9 28.0005 10.9 28.1005 10.9C29.2005 10.7 29.8005 10 30.0005 8.9C30.0005 8.6 30.0005 7.5 29.8005 5.5L29.5005 1.6C29.5005 0.9 29.3005 0.5 29.1005 0.3Z" fill="#44BFB6"/>
<path d="M21.5998 0.900051C21.3998 0.800051 20.7998 2.00005 19.8998 4.60005C19.8998 4.70005 19.7998 4.90005 19.7998 5.00005C19.3998 6.10005 18.8998 7.30005 18.4998 8.50005C18.3998 8.40005 18.1998 8.40005 17.9998 8.40005C17.7998 8.40005 17.6998 8.40005 17.5998 8.60005C17.5998 8.60005 17.5998 8.60005 17.4998 8.70005C16.6998 7.80005 15.8998 6.90005 15.0998 6.00005C14.9998 5.90005 14.8998 5.80005 14.7998 5.70005C12.8998 3.70005 11.9998 2.80005 11.7998 2.90005V3.00005C11.7998 3.10005 11.9998 3.20005 12.2998 3.40005C12.7998 3.70005 13.6998 4.50005 14.9998 6.00005C15.6998 6.80005 16.4998 7.70005 17.3998 8.80005C17.3998 8.90005 17.2998 8.90005 17.2998 9.00005C17.2998 9.20005 17.2998 9.30005 17.3998 9.40005H17.4998L17.5998 9.50005C17.5998 9.60005 17.5998 9.60005 17.5998 9.70005V9.80005C17.9998 9.40005 18.2998 9.30005 18.5998 9.40005C18.6998 9.40005 18.6998 9.40005 18.7998 9.30005C18.8998 9.20005 18.7998 9.10005 18.7998 8.90005C18.6998 8.80005 18.6998 8.70005 18.5998 8.70005C18.9998 7.10005 19.3998 5.90005 19.6998 5.00005C20.3998 3.10005 20.8998 2.00005 21.2998 1.60005C21.4998 1.30005 21.5998 1.10005 21.5998 0.900051Z" fill="#02673F"/>
<path d="M1.2002 50.5998C1.2002 49.9998 1.4002 49.5998 1.7002 49.2998C2.0002 48.8998 2.4002 48.7998 2.8002 48.7998H3.1002V53.2998H1.2002V50.5998ZM4.4002 50.5998C4.4002 50.0998 4.6002 49.5998 4.9002 49.2998C5.2002 48.8998 5.6002 48.7998 6.0002 48.7998H6.3002V53.2998H4.4002V50.5998Z" fill="#66AA44"/>
<path d="M15.4002 59.5999H9.0002C8.5002 59.5999 8.2002 59.4999 8.0002 59.2999C7.8002 59.0999 7.7002 58.7999 7.7002 58.2999V49.8999H14.0002C15.0002 49.8999 15.4002 50.3999 15.4002 51.2999V59.5999ZM13.3002 57.4999V51.9999H9.8002V57.4999H13.3002Z" fill="#66AA44"/>
<path d="M23.3 57.7998C23.3 58.2998 23.1 58.6998 22.8 58.9998C22.5 59.2998 22.1 59.4998 21.6 59.4998H17V57.3998H21.2V51.8998H17V49.7998H21.7C22.2 49.7998 22.6 49.9998 22.9 50.2998C23.2 50.5998 23.4 50.9998 23.4 51.4998V57.7998H23.3Z" fill="#66AA44"/>
<path d="M29.5 59.5999H27.3L29.6 51.9999H25.7C24.9 51.9999 24.5 51.4999 24.5 50.5999V47.3999H27V49.8999H30.7C31.7 49.8999 32.2 50.3999 32.2 51.2999L29.5 59.5999Z" fill="#66AA44"/>
<path d="M35.5004 55.0998H33.4004V49.7998H35.5004V55.0998Z" fill="#66AA44"/>
<path d="M43.9006 59.5999H36.6006V57.4999H40.9006V51.9999H36.9006V49.8999H41.3006C41.8006 49.8999 42.2006 49.9999 42.5006 50.2999C42.8006 50.5999 43.0006 50.9999 43.0006 51.4999V57.4999H43.9006V59.5999Z" fill="#66AA44"/>
<path d="M55.1 57.3999C55.1 58.7999 54.5 59.5999 53.2 59.5999H47C45.7 59.5999 45 58.8999 45 57.4999V49.8999H47.1V57.5999H49V49.8999H51V57.5999H52.8V49.8999H55V57.3999H55.1Z" fill="#66AA44"/>
<path d="M63.5998 59.5999H56.2998V57.4999H60.5998V51.9999H56.5998V49.8999H60.9998C61.4998 49.8999 61.8998 49.9999 62.1998 50.2999C62.4998 50.5999 62.6998 50.9999 62.6998 51.4999V57.4999H63.5998V59.5999Z" fill="#66AA44"/>
<path d="M75.8004 59.5999H73.7004V51.9999H68.4004V49.8999H74.4004C75.4004 49.8999 75.8004 50.3999 75.8004 51.3999V59.5999ZM70.5004 59.5999H68.4004V55.1999C68.4004 54.6999 68.5004 54.3999 68.8004 54.1999C69.0004 54.0999 69.3004 53.9999 69.8004 53.9999H70.5004V59.5999Z" fill="#66AA44"/>
<path d="M82 59.5999H79.8L82.1 51.9999H78.2C77.4 51.9999 77 51.4999 77 50.5999V47.3999H79.3V49.8999H83C84 49.8999 84.5 50.3999 84.5 51.2999L82 59.5999Z" fill="#66AA44"/>
<path d="M93.4004 57.6998C93.4004 58.1998 93.2004 58.5998 92.9004 58.9998C92.6004 59.3998 92.2004 59.4998 91.7004 59.4998H85.4004V57.3998H86.7004V49.7998H88.9004V57.3998H91.2004V49.7998H93.3004L93.4004 57.6998Z" fill="#66AA44"/>
<path d="M96.6998 51.2999C96.6998 51.7999 96.4998 52.2999 96.1998 52.5999C95.8998 52.8999 95.4998 53.0999 95.0998 53.0999H94.7998V48.5999H96.6998V51.2999ZM99.8998 51.2999C99.8998 51.7999 99.6998 52.2999 99.3998 52.5999C99.0998 52.8999 98.6998 53.0999 98.2998 53.0999H97.9998V48.5999H99.8998V51.2999Z" fill="#66AA44"/>
<path d="M112.6 59.5999H110.5V51.9999H107.5V58.0999C107.5 59.0999 107 59.5999 106 59.5999H104.2V57.4999H105.3V51.2999C105.3 50.3999 105.8 49.8999 106.9 49.8999H111.1C112.1 49.8999 112.6 50.3999 112.6 51.2999V59.5999Z" fill="#66AA44"/>
<path d="M116.4 55.0998H114.3V49.7998H116.4V55.0998Z" fill="#66AA44"/>
<path d="M124.901 59.5999H117.601V57.4999H121.901V51.9999H117.901V49.8999H122.301C122.801 49.8999 123.201 49.9999 123.501 50.2999C123.801 50.5999 124.001 50.9999 124.001 51.4999V57.4999H124.901V59.5999Z" fill="#66AA44"/>
<path d="M133.7 58.0999C133.7 59.0999 133.2 59.5999 132.3 59.5999H129.5V57.4999H131.6V51.9999H129.4C128.5 51.9999 128 52.4999 128 53.5999V59.5999H126V53.6999C126 52.6999 126.3 51.7999 126.9 51.0999C127.5 50.2999 128.4 49.8999 129.5 49.8999H132.4C133.3 49.8999 133.8 50.3999 133.8 51.3999L133.7 58.0999Z" fill="#66AA44"/>
<path d="M54.6996 17.4H50.3996V6.2H44.0996V2H52.0996C52.7996 2 53.4996 2.2 53.9996 2.7C54.4996 3.2 54.7996 3.8 54.7996 4.6V17.4H54.6996Z" fill="#44BFB6"/>
<path d="M68.7994 14.7C68.7994 15.5 68.4994 16.2 67.8994 16.7C67.2994 17.2 66.5994 17.4 65.7994 17.4H59.4994C58.6994 17.4 58.0994 17.2 57.5994 16.7C57.0994 16.2 56.8994 15.6 56.8994 14.7V2H61.1994V13.2H64.4994V6.2H62.9994V2H66.1994C66.8994 2 67.4994 2.2 67.9994 2.7C68.4994 3.1 68.7994 3.7 68.7994 4.4V14.7Z" fill="#44BFB6"/>
<path d="M75.1994 10.4H70.8994V2H75.1994V10.4Z" fill="#44BFB6"/>
<path d="M89.3996 12.5C89.3996 14 88.7996 15.2 87.6996 16.3C86.5996 17.3 85.1996 17.8 83.3996 17.8C81.4996 17.8 80.0996 17.3 78.8996 16.4C77.6996 15.5 77.0996 14.2 77.0996 12.5V4.5C77.0996 3.7 77.2996 3.1 77.7996 2.6C78.3996 2.2 78.9996 2 79.7996 2H86.6996C87.0996 2 87.4996 2.1 87.7996 2.2C88.0996 2.3 88.3996 2.5 88.6996 2.7C88.8996 2.9 89.0996 3.2 89.2996 3.5C89.3996 3.8 89.4996 4.2 89.4996 4.6L89.3996 12.5ZM85.1996 6.2H81.4996V11.8C81.4996 12 81.4996 12.3 81.5996 12.5C81.6996 12.7 81.7996 12.9 81.9996 13.1C82.1996 13.3 82.3996 13.4 82.5996 13.5C82.7996 13.6 83.0996 13.6 83.3996 13.6C84.6996 13.6 85.2996 13 85.2996 11.9V6.2H85.1996Z" fill="#44BFB6"/>
<path d="M95.8 10.4H91.5V2H95.8V10.4Z" fill="#44BFB6"/>
<path d="M108.799 17.4H97.3994V13.1H103.199V6.2H97.3994V2H104.999C105.799 2 106.399 2.2 106.899 2.7C107.399 3.2 107.699 3.8 107.699 4.6V13.1H108.899V17.4H108.799Z" fill="#44BFB6"/>
<path d="M114.6 10.4H110.3V2H114.6V10.4Z" fill="#44BFB6"/>
<path d="M120.8 10.4H116.5V2H120.8V10.4Z" fill="#44BFB6"/>
<path d="M133.799 17.4H122.399V13.1H128.199V6.2H122.399V2H129.999C130.799 2 131.399 2.2 131.899 2.7C132.399 3.2 132.699 3.8 132.699 4.6V13.1H133.899V17.4H133.799Z" fill="#44BFB6"/>
<path d="M48.6994 40H45.8994V27.3H48.6994V40Z" fill="#44BFB6"/>
<path d="M55.7998 38C55.7998 39.3 55.1998 40 53.8998 40H50.2998V37.2001H52.9998V27.3H55.7998V38Z" fill="#44BFB6"/>
<path d="M60.8 34.2001H58V27.3H60.8V34.2001Z" fill="#44BFB6"/>
<path d="M72.9996 38.0999C72.9996 39.3999 72.3996 39.9999 71.1996 39.9999H67.5996V37.2999H70.3996V30.0999H67.5996C66.3996 30.0999 65.7996 30.7999 65.7996 32.1999V39.9999H63.0996V32.2999C63.0996 30.9999 63.4996 29.7999 64.1996 28.8999C64.9996 27.8999 66.1996 27.3999 67.5996 27.3999H71.3996C72.5996 27.3999 73.1996 27.9999 73.1996 29.2999L72.9996 38.0999Z" fill="#44BFB6"/>
<path d="M84.1 40H74.5V37.2001H80.1V30H75V27.3H80.8C81.4 27.3 82 27.5 82.4 27.9C82.8 28.3 83 28.8 83 29.5V37.3H84.2L84.1 40Z" fill="#44BFB6"/>
<path d="M99.1992 30.0999H97.4992V40.0999H94.6992V32.4999C94.6992 31.7999 94.8992 31.2999 95.1992 30.7999C95.5992 30.3999 95.9992 30.0999 96.4992 30.0999H89.6992V27.3999H99.2992L99.1992 30.0999Z" fill="#44BFB6"/>
<path d="M110.8 40H108V30H103.5V40H100.8V29.2001C100.8 28.0001 101.4 27.3 102.7 27.3H108.9C110.1 27.3 110.7 27.9001 110.7 29.2001V40H110.8Z" fill="#44BFB6"/>
<path d="M115.9 40H113.1V27.3H115.9V40Z" fill="#44BFB6"/>
<path d="M120.9 34.2001H118.1V27.3H120.9V34.2001Z" fill="#44BFB6"/>
<path d="M133.1 38.0999C133.1 39.3999 132.5 39.9999 131.3 39.9999H127.7V37.2999H130.5V30.0999H127.7C126.5 30.0999 125.9 30.7999 125.9 32.1999V39.9999H123V32.2999C123 30.9999 123.4 29.7999 124.1 28.8999C124.9 27.8999 126.1 27.3999 127.5 27.3999H131.3C132.5 27.3999 133.1 27.9999 133.1 29.2999V38.0999Z" fill="#44BFB6"/>
</g>
<defs>
<clipPath id="clip0">
<rect width="133.8" height="59.6" fill="white"/>
</clipPath>
</defs>
</svg>
