<svg width="751" height="595" viewBox="0 0 751 595" fill="none" xmlns="http://www.w3.org/2000/svg">
<g opacity="0.7">
<path d="M64.4076 402.362L64.7239 406.475C64.7239 407.108 64.7239 407.741 65.0402 408.374C65.989 415.336 67.8865 422.614 70.1004 429.26C70.4167 429.893 70.4167 430.526 70.733 431.158C75.7933 445.399 83.0674 458.057 90.6579 468.183C94.7693 473.879 99.1971 478.626 102.992 482.107C283.265 642.23 676.387 624.193 740.906 474.196C774.114 396.982 720.348 296.351 652.983 208.695C629.896 178.632 454.683 -102.375 312.678 40.0271C226.653 126.101 299.079 309.958 212.421 309.958C191.548 309.958 173.52 311.224 157.707 313.756C154.544 314.389 151.381 314.705 148.219 315.338C147.902 315.338 147.586 315.338 147.27 315.654C139.996 317.237 133.354 318.819 127.029 321.034C117.541 324.199 109.318 327.68 102.044 331.793C99.1971 333.376 96.3507 335.274 93.8206 337.173C92.8718 337.806 91.923 338.755 90.9742 339.388C90.9742 339.388 90.9741 339.388 90.6579 339.705C83.7 345.401 78.3234 351.413 74.2119 358.059C73.5794 359.324 72.9468 360.274 72.3143 361.54C71.0492 363.755 70.1004 365.97 69.1516 368.501C68.8353 369.134 68.5191 370.084 68.2028 370.717C65.989 377.046 64.7239 383.691 64.4076 390.653C64.0913 394.45 64.0913 398.248 64.4076 402.362Z" fill="url(#paint0_linear)"/>
<path d="M222.858 59.3304C238.988 69.1404 239.936 100.785 241.834 163.759C244.364 249.2 227.286 269.453 221.277 275.782C202.617 295.718 178.264 299.832 170.357 301.098C128.294 307.743 78.6396 285.908 62.1936 245.403C45.4314 204.581 70.4166 164.075 83.3836 142.873C118.173 85.9122 190.282 39.0777 222.858 59.3304Z" fill="url(#paint1_linear)"/>
<path d="M64.4076 402.362L64.7239 406.475C64.7239 407.108 64.7239 407.741 65.0402 408.374C65.989 415.336 67.8865 422.614 70.1004 429.26C70.4167 429.893 70.4167 430.526 70.733 431.158C75.7933 445.399 83.0674 458.057 90.6579 468.183C94.7693 473.879 99.1971 478.626 102.992 482.107C283.265 642.23 676.387 624.193 740.906 474.196C774.114 396.982 720.348 296.351 652.983 208.695C629.896 178.632 454.683 -102.375 312.678 40.0271C226.653 126.101 299.079 309.958 212.421 309.958C191.548 309.958 173.52 311.224 157.707 313.756C154.544 314.389 151.381 314.705 148.219 315.338C147.902 315.338 147.586 315.338 147.27 315.654C139.996 317.237 133.354 318.819 127.029 321.034C117.541 324.199 109.318 327.68 102.044 331.793C99.1971 333.376 96.3507 335.274 93.8206 337.173C92.8718 337.806 91.923 338.755 90.9742 339.388C90.9742 339.388 90.9741 339.388 90.6579 339.705C83.7 345.401 78.3234 351.413 74.2119 358.059C73.5794 359.324 72.9468 360.274 72.3143 361.54C71.0492 363.755 70.1004 365.97 69.1516 368.501C68.8353 369.134 68.5191 370.084 68.2028 370.717C65.989 377.046 64.7239 383.691 64.4076 390.653C64.0913 394.45 64.0913 398.248 64.4076 402.362Z" fill="url(#paint2_linear)"/>
<path d="M222.858 59.3304C238.988 69.1404 239.936 100.785 241.834 163.759C244.364 249.2 227.286 269.453 221.277 275.782C202.617 295.718 178.264 299.832 170.357 301.098C128.294 307.743 78.6396 285.908 62.1936 245.403C45.4314 204.581 70.4166 164.075 83.3836 142.873C118.173 85.9122 190.282 39.0777 222.858 59.3304Z" fill="url(#paint3_linear)"/>
</g>
<path d="M64.4072 412.361L64.7235 416.475C66.9374 416.792 69.1513 416.792 71.3651 417.108C71.3651 417.108 71.3651 417.108 71.6814 417.108C74.5278 417.424 77.6905 417.424 80.8532 417.424H81.1694C84.6484 417.424 87.8111 417.424 91.29 417.424C91.29 417.424 94.4527 417.424 94.769 417.424C99.1967 417.424 103.308 417.108 107.42 416.792C107.736 416.792 108.052 416.792 108.369 416.792C108.685 416.792 108.685 416.792 108.685 416.792C125.447 415.526 138.414 412.678 138.414 408.247C138.414 403.184 122.917 400.336 103.941 399.387C103.624 399.387 103.308 399.387 102.992 399.387C102.676 399.387 102.359 399.387 102.043 399.387C101.094 399.387 100.146 399.387 99.1967 399.387C96.3503 399.387 93.8202 399.387 90.9738 399.387C90.3412 399.387 83.3833 399.387 83.0671 399.387C82.1183 399.387 78.9556 399.387 78.323 399.387C73.579 399.703 68.8349 400.02 64.4072 400.336C64.0909 404.45 64.0909 408.247 64.4072 412.361Z" fill="#E70472"/>
<path d="M64.4072 412.361C68.5187 411.412 73.8952 410.779 79.9044 410.463C80.5369 410.463 80.8532 410.463 81.4857 410.463C83.3833 410.463 84.9646 410.463 86.8622 410.463C87.1785 410.463 91.6063 410.463 91.9226 410.463C93.1876 410.463 94.4527 410.463 95.7178 410.463C96.3503 410.463 96.9828 410.463 97.2991 410.463C97.2991 410.463 97.6154 410.463 97.9316 410.463C109.634 411.096 119.754 412.678 122.601 415.209C118.489 415.842 113.745 416.475 109.001 416.792C108.685 416.792 108.685 416.792 108.685 416.792C104.257 417.108 99.1967 417.424 94.4527 417.424C90.0249 417.424 85.5972 417.424 81.4857 417.424H81.1694C78.0067 417.108 74.8441 417.108 71.9976 416.792C69.7838 416.475 67.5699 416.475 65.356 416.159L64.4072 412.361Z" fill="#121212"/>
<path d="M70.7325 441.158C75.7928 455.399 83.067 468.056 90.6575 478.183C107.103 478.183 123.233 475.968 123.233 471.854L129.242 437.044C118.489 441.475 91.29 442.741 70.7325 441.158Z" fill="#700425"/>
<path d="M65.04 418.374C65.9888 425.336 67.8864 432.614 70.1003 439.26C95.718 441.475 133.038 438.943 133.038 431.981L138.73 411.729C130.191 419.007 91.9228 421.222 65.04 418.374Z" fill="#700425"/>
<g opacity="0.8">
<path d="M146.321 265.845C143.475 262.048 141.261 262.364 142.526 267.744C156.758 322.49 111.531 320.591 117.857 373.754C116.275 375.653 113.429 379.451 112.164 381.033C126.396 391.476 181.427 342.11 146.321 265.845Z" fill="#D0A0F9"/>
<path d="M94.4528 417.741C98.248 417.424 90.6575 413.311 113.429 381.666C124.815 365.843 134.619 354.767 141.893 340.844C150.116 324.705 150.749 310.148 149.8 310.148C149.167 352.552 96.6666 379.767 94.4528 417.741Z" fill="#A28ACC"/>
</g>
<g opacity="0.8">
<path d="M90.9739 362.046C141.577 279.136 83.0672 272.807 90.9739 219.96C91.6064 214.897 89.0763 218.062 87.1787 219.96C51.7566 275.339 93.5041 312.363 90.9739 362.046Z" fill="#BE98F2"/>
<path d="M93.1878 327.236C91.2902 354.768 84.3323 378.818 91.6065 417.741C95.0854 417.741 87.8112 409.83 92.8715 359.198C101.411 269.01 88.1275 280.402 84.3323 255.086C82.1184 241.479 87.495 231.352 86.5461 231.036C74.5279 268.377 97.6156 260.782 93.1878 327.236Z" fill="#A28ACC"/>
</g>
<g opacity="0.8">
<path d="M65.0401 347.806C76.1095 282.617 36.2597 294.009 20.4463 273.124C18.8649 271.542 18.5486 273.44 18.8649 275.022C17.2836 336.414 62.5099 341.477 70.7329 360.78C67.254 352.553 66.3052 350.654 65.0401 347.806Z" fill="#B290ED"/>
<path d="M30.8831 289.896C43.2175 324.705 64.7238 330.085 76.1095 387.045C78.6396 399.071 82.1186 433.564 81.1697 410.463C79.9047 371.539 68.519 348.122 49.2266 320.908C28.6692 292.111 32.4644 289.263 30.8831 289.896Z" fill="#A28ACC"/>
</g>
<g opacity="0.8">
<path d="M166.246 413.944C173.52 428.5 162.134 440.525 168.143 452.867C174.153 465.208 201.984 480.082 201.984 480.082C217.798 427.551 172.571 419.64 166.246 413.944Z" fill="#D0A0F9"/>
<path d="M96.0345 417.425C97.6158 400.653 119.438 379.451 137.149 388.944C166.562 401.286 195.027 465.208 194.71 465.525C129.243 318.376 90.9742 417.425 96.0345 417.425Z" fill="#A28ACC"/>
</g>
<g opacity="0.8">
<path d="M28.353 375.653C17.9162 406.349 26.7717 409.197 28.353 437.044C7.79559 426.285 0.837646 407.931 0.837646 397.805C0.837646 387.995 22.0277 385.78 28.353 375.653Z" fill="#B290ED"/>
<path d="M20.13 396.855C22.6602 372.172 33.4133 369.008 46.6966 369.957C85.2813 372.805 90.0253 417.741 88.1277 417.741C84.3325 379.451 47.6454 365.21 33.097 373.122C19.1812 380.4 18.8649 409.513 22.9764 425.336C25.1903 433.247 26.7717 433.88 26.1392 434.196C20.4463 424.703 19.1812 407.931 20.13 396.855Z" fill="#A28ACC"/>
</g>
<defs>
<linearGradient id="paint0_linear" x1="620.241" y1="628.951" x2="160.056" y2="82.8633" gradientUnits="userSpaceOnUse">
<stop stop-color="#9A71FF"/>
<stop offset="0.1716" stop-color="#B767FF"/>
<stop offset="0.3941" stop-color="#D65DFF"/>
<stop offset="0.6106" stop-color="#ED56FF"/>
<stop offset="0.8164" stop-color="#FA52FF"/>
<stop offset="1" stop-color="#FF50FF"/>
</linearGradient>
<linearGradient id="paint1_linear" x1="241.1" y1="271.252" x2="91.8449" y2="94.1354" gradientUnits="userSpaceOnUse">
<stop stop-color="#9A71FF"/>
<stop offset="0.1716" stop-color="#B767FF"/>
<stop offset="0.3941" stop-color="#D65DFF"/>
<stop offset="0.6106" stop-color="#ED56FF"/>
<stop offset="0.8164" stop-color="#FA52FF"/>
<stop offset="1" stop-color="#FF50FF"/>
</linearGradient>
<linearGradient id="paint2_linear" x1="620.241" y1="628.951" x2="160.056" y2="82.8633" gradientUnits="userSpaceOnUse">
<stop stop-color="#A3F3FF"/>
<stop offset="1" stop-color="#E3F4FF"/>
</linearGradient>
<linearGradient id="paint3_linear" x1="241.1" y1="271.252" x2="91.8449" y2="94.1354" gradientUnits="userSpaceOnUse">
<stop stop-color="#A3F3FF"/>
<stop offset="1" stop-color="#E3F4FF"/>
</linearGradient>
</defs>
</svg>
