<svg width="376" height="344" viewBox="0 0 376 344" fill="none" xmlns="http://www.w3.org/2000/svg">
<g opacity="0.5" clip-path="url(#clip0)">
<path fill-rule="evenodd" clip-rule="evenodd" d="M329.138 275.591C333.336 298.203 231.525 312.952 143.894 302.659C56.2632 292.366 16.0623 252.171 57.8784 230.753C99.6944 209.335 324.94 252.979 329.138 275.591Z" fill="#DDE3E9"/>
</g>
<g opacity="0.41">
<path fill-rule="evenodd" clip-rule="evenodd" d="M246.454 53.9383C248.488 51.0382 252.262 43.6729 255.125 42.6366C256.969 41.9692 256.431 48.8736 256.454 50.1901C256.543 55.2835 256.047 60.3446 255.435 65.3953C254.331 74.5041 250.724 82.6162 245.776 90.3688C243.23 94.3579 240.244 98.3954 236.108 100.884C234.204 102.031 231.913 102.223 230.033 103.21C227.843 104.36 229.035 103.431 228.049 105.712C226.678 108.88 226.24 112.968 225.606 116.348C222.694 131.866 215.646 213.898 216.868 229.682C216.976 231.082 215.025 231.416 214.928 229.708C214.41 220.652 218.89 157.937 221.149 137.428C223.409 116.919 225.696 98.7995 227.989 91.7039C230.771 83.0954 235.795 72.743 239.977 64.7152C241.92 60.9857 244.037 57.3847 246.454 53.9383Z" fill="#69A1AC"/>
<path fill-rule="evenodd" clip-rule="evenodd" d="M261.55 154.528C266.842 150.643 272.571 157.976 267.782 161.862C265.134 164.01 262.367 163.246 260.808 161.456C259.797 162.689 258.85 163.978 257.94 165.067C255.169 168.385 252.549 171.783 250.045 175.259C244.844 182.482 240.387 190.113 235.727 197.604C231.128 204.997 226.566 212.428 222.397 220.009C218.866 226.431 214.159 233.987 212.95 241.028C214.785 226.095 221.745 211.742 230.034 198.578C238.256 185.521 247.691 171.262 260.421 160.958C259.125 159.053 259.089 156.333 261.55 154.528Z" fill="#C1DEE2"/>
<path fill-rule="evenodd" clip-rule="evenodd" d="M161.121 118.109C164.083 118.688 168.922 125.388 171.364 127.941C174.265 130.974 176.897 134.207 179.378 137.595C184.72 144.887 189.497 152.639 193.559 160.724C200.181 173.904 205.486 187.433 209.337 201.785C211.693 210.57 213.219 219.676 214.124 228.718C214.295 230.423 216.083 243.571 213.506 243.925C211.189 244.244 211.905 233.942 211.793 232.541C210.53 216.731 206.744 201.348 201.479 186.446C200.332 183.2 199.267 179.224 197.433 176.303C196.112 174.199 197.423 174.933 195.102 174.137C193.109 173.452 190.838 173.62 188.797 172.782C184.364 170.964 180.814 167.434 177.702 163.884C171.654 156.984 166.862 149.519 164.364 140.677C162.978 135.775 161.705 130.844 160.998 125.79C160.815 124.484 159.214 117.736 161.121 118.109Z" fill="#69A1AC"/>
<path fill-rule="evenodd" clip-rule="evenodd" d="M172.81 6.63846C183.965 25.9858 193.133 47.2383 199.053 68.7638C202.639 81.8059 205.147 95.189 207.639 108.475C211.498 129.048 215.148 149.619 216.186 170.557C217.23 191.616 219.296 215.905 212.4 236.188C215.844 215.595 212.565 193.675 211.984 172.955C211.707 163.063 210.903 153.268 209.848 143.434C208.824 133.894 207.152 124.4 205.595 114.936C204.836 110.326 204.04 105.724 203.229 101.124C202.986 99.7513 202.884 95.6789 202.014 94.7414C201.137 93.7976 196.667 93.4129 195.263 92.7205C192.437 91.3258 189.779 89.3448 187.426 87.2516C182.915 83.2389 178.992 77.9959 175.895 72.8275C168.729 60.8687 165.864 46.2745 166.009 32.4247C166.037 29.7356 170.361 0.779204 168.625 0.38045C168.729 0.257982 168.828 0.13153 168.921 0C170.236 2.20158 171.527 4.41807 172.81 6.63846Z" fill="#89C5CC"/>
<path fill-rule="evenodd" clip-rule="evenodd" d="M293.219 76.4162C293.391 76.1679 294.511 74.4412 293.947 74.5516C295.096 74.3269 292.367 76.4559 295.229 75.1496C293.87 76.433 294.655 78.1001 294.673 79.8274C294.702 82.6318 294.233 85.4132 293.705 88.1574C292.87 92.4952 291.627 96.7128 289.822 100.747C285.889 109.54 279.21 118.004 271.281 123.501C267.366 126.215 263.53 127.139 259.065 128.389C256.245 129.178 256.022 130.637 254.525 133.373C251.408 139.073 248.348 144.752 245.599 150.643C242.318 157.679 239.132 164.722 236.127 171.881C226.004 195.996 217.764 220.98 213.437 246.836C213.331 231.599 216.856 215.907 221.302 201.383C224.541 190.802 228.757 180.602 233.254 170.505C234.344 168.059 235.995 164.913 236.458 162.212C236.782 160.32 235.791 158.5 235.338 156.507C233.569 148.745 233.696 140.049 235.249 132.246C236.961 123.641 241.912 119.647 250.288 118.428C253.351 117.983 257.245 118.146 260.054 116.84C263.114 115.417 264.376 110.742 266.116 107.741C270.79 99.6798 276.344 91.9484 282.721 85.1559C284.486 83.275 286.385 81.5397 288.399 79.9313C289.67 78.9165 292.353 77.6663 293.219 76.4162Z" fill="#89C5CC"/>
<path fill-rule="evenodd" clip-rule="evenodd" d="M197.34 236.11C196.895 233.091 199.235 230.38 202.287 230.38H226.035C229.087 230.38 231.427 233.091 230.982 236.11L229.905 243.407C228.754 251.215 222.054 257 214.161 257C206.268 257 199.568 251.215 198.416 243.407L197.34 236.11Z" fill="#C1DEE2"/>
</g>
<path fill-rule="evenodd" clip-rule="evenodd" d="M154.257 114.999C157.98 115.265 161.2 114.668 162.341 113.661C165.203 111.133 159.366 98.9298 154.397 95.4781C149.428 92.0264 135.272 96.6314 139.407 106.38C140.842 109.763 143.699 111.979 146.937 113.325L151.933 132.113L162.488 126.735L154.257 114.999Z" fill="#B28B67"/>
<path fill-rule="evenodd" clip-rule="evenodd" d="M153.383 90.3812C154.579 92.7302 153.716 95.5873 151.461 96.8922C150.343 97.977 148.792 99.1455 146.967 100.235C147.502 100.831 148.001 101.564 148.453 102.45C148.851 103.232 149.187 104.105 149.458 105.028C148.8 104.75 148.09 104.711 147.534 104.995C145.978 105.788 145.547 107.619 146.239 108.978C147.118 110.703 148.749 111.443 150.254 110.802C150.225 113.982 149.379 116.796 147.57 117.717C144.135 119.468 139.353 116.12 136.837 111.182C136.748 111.008 136.664 110.834 136.584 110.66C135.827 112.05 135.283 113.645 134.734 115.252C133.569 118.665 132.386 122.131 129.116 123.796C122.575 127.129 113.255 115.259 122.394 110.603C128.609 107.436 132.128 106.784 135.446 106.782C135.219 105.052 135.383 103.417 135.914 102.064C136.013 101.681 136.244 101.247 136.588 100.777C136.79 100.482 137.016 100.209 137.266 99.9638C138.557 98.5697 140.65 96.9841 143.176 95.5836C143.648 95.3223 144.117 95.0771 144.58 94.849C143.353 92.4227 144.32 89.4594 146.744 88.2242C149.173 86.9866 152.145 87.9523 153.383 90.3812Z" fill="#191847"/>
<path fill-rule="evenodd" clip-rule="evenodd" d="M158.402 168.539L176.976 229.262L185.974 280.903L193.029 280.903L183.521 168.539L158.402 168.539Z" fill="#997659"/>
<path fill-rule="evenodd" clip-rule="evenodd" d="M151.757 168.539C153.018 201.879 151.534 219.077 151.251 222.106C150.969 225.135 147.103 244.776 137.949 281.92L145.467 279.338C159.933 245.271 164.862 227.566 166.521 223.093C168.18 218.619 172.587 200.435 179.741 168.539L151.757 168.539Z" fill="#B28B67"/>
<path fill-rule="evenodd" clip-rule="evenodd" d="M140.394 279.164C139.296 278.758 138.017 279.222 137.663 280.338C137.404 281.154 137.177 282.035 137.177 282.61C137.177 283.945 137.622 286.506 137.622 286.506C139.17 286.506 165.461 286.506 165.461 286.506C165.461 286.506 166.546 282.919 164.208 282.633C161.87 282.346 160.324 282.116 160.324 282.116L147.86 276.56C147.345 276.33 146.743 276.571 146.528 277.092L145.895 278.628C145.895 278.628 143.731 279.638 142.378 279.638C141.836 279.638 141.092 279.423 140.394 279.164Z" fill="#E4E4E4"/>
<path fill-rule="evenodd" clip-rule="evenodd" d="M186.792 279.164C185.693 278.758 184.414 279.222 184.06 280.338C183.801 281.154 183.574 282.035 183.574 282.61C183.574 283.945 184.019 286.506 184.019 286.506C185.568 286.506 211.858 286.506 211.858 286.506C211.858 286.506 212.943 282.919 210.605 282.633C208.267 282.346 206.721 282.116 206.721 282.116L194.257 276.56C193.743 276.33 193.14 276.571 192.926 277.092L192.293 278.628C192.293 278.628 190.128 279.638 188.775 279.638C188.234 279.638 187.49 279.423 186.792 279.164Z" fill="#E4E4E4"/>
<path fill-rule="evenodd" clip-rule="evenodd" d="M155.934 168.539L163.831 199.477L187.953 199.477L184.356 168.539L155.934 168.539Z" fill="#69A1AC"/>
<path fill-rule="evenodd" clip-rule="evenodd" d="M151.492 168.539C147.594 180.222 150.011 199.477 150.011 199.477L174.626 199.477L181.395 168.539L151.492 168.539Z" fill="#89C5CC"/>
<path fill-rule="evenodd" clip-rule="evenodd" d="M200.767 103.721L183.973 113.696L190.532 120.262L202.576 108.436C209.067 106.401 212.018 104.975 211.429 104.158C210.933 103.469 210.172 103.52 209.472 103.567C208.927 103.604 208.418 103.638 208.098 103.318C207.368 102.588 208.619 99.9006 209.914 97.4013C211.209 94.902 209.74 95.1669 208.908 95.549C206.21 97.5162 203.496 100.24 200.767 103.721ZM208.422 153.511L190.349 146.101L189.053 155.292L205.745 157.793C211.277 161.752 214.191 163.251 214.49 162.289C214.741 161.478 214.243 160.902 213.784 160.371C213.426 159.957 213.093 159.571 213.156 159.123C213.3 158.101 216.198 157.482 218.974 157.013C221.75 156.543 220.654 155.529 219.848 155.094C216.653 154.123 212.845 153.596 208.422 153.511Z" fill="#B28B67"/>
<path fill-rule="evenodd" clip-rule="evenodd" d="M159.088 121.806C171.274 135.244 186.269 144.136 206.792 152.149L202.044 161.241C180.767 158.86 169.402 157.056 160.7 143.659C158.517 140.296 154.708 128.791 152.41 122.811L159.088 121.806Z" fill="#AF80FC"/>
<path fill-rule="evenodd" clip-rule="evenodd" d="M148.716 179.287L185.594 170.093C185.594 170.093 163.536 135.003 159.713 120.829C159.583 120.347 158.477 119.717 158.109 119.927C154.076 122.234 148.596 121.326 148.596 121.326C143.359 137.566 144.652 155.631 148.716 179.287Z" fill="#F2F2F2"/>
<path fill-rule="evenodd" clip-rule="evenodd" d="M163.195 140.471C175.114 163.741 179.891 184.032 167.175 187.202L147.512 192.105C139.157 171.896 140.109 140.75 144.059 124.175C144.209 123.542 144.565 122.331 146.022 121.968L151.735 120.543C151.74 120.55 151.744 120.557 151.748 120.564C153.471 120.149 155.381 119.74 157.448 119.297C168.091 117.016 182.932 113.834 198.168 104.388L202.554 113.658C190.002 127 176.722 138.222 163.195 140.471Z" fill="#C5A6F8"/>
<path fill-rule="evenodd" clip-rule="evenodd" d="M276.511 67.4374C272.577 69.8081 268.713 70.9536 266.899 70.4859C262.35 69.3134 261.932 52.6721 265.451 46.1116C268.971 39.5511 287.065 36.6916 287.977 49.6901C288.294 54.2014 286.4 58.2275 283.601 61.5128L288.619 84.9033H274.042L276.511 67.4374Z" fill="#B28B67"/>
<path fill-rule="evenodd" clip-rule="evenodd" d="M272.529 40.6682C274.253 40.3851 278.896 40.1904 279.752 40.1905C280.299 40.1905 280.892 40.3157 281.216 39.8126C281.481 39.4007 281.384 38.7039 281.463 38.2258C281.555 37.6704 281.686 37.1222 281.818 36.5754C282.194 35.0194 282.763 33.539 283.558 32.1492C285.051 29.5416 287.237 27.4991 289.998 26.3105C293.046 24.9982 296.496 24.6977 299.775 24.9639C303.284 25.2487 306.46 26.4087 309.773 27.5003C312.93 28.5406 316.237 28.95 319.539 28.442C322.866 27.9303 325.379 26.1245 328.186 24.4106C331.058 22.6561 334.341 21.5085 337.737 21.7723C340.908 22.0186 343.829 23.3294 346.451 25.0805C348.903 26.7189 350.927 28.69 352.07 31.4642C353.299 34.4484 353.297 37.7241 351.276 40.3615C348.347 44.1843 342.908 45.1729 338.383 45.0746C335.766 45.018 333.195 44.5395 330.724 43.6692C327.429 42.5084 324.581 40.5411 321.498 38.9448C320.052 38.1958 318.556 37.5806 316.989 37.1374C315.467 36.7072 313.969 36.5099 312.592 37.4301C311.135 38.4037 309.829 39.3599 308.163 39.9694C306.564 40.554 304.87 40.881 303.167 40.8678C299.852 40.8422 296.585 39.808 293.366 39.1152C290.74 38.5504 287.932 37.9875 285.255 38.5305C284.139 38.7571 282.507 39.2248 282.104 40.3871C288.893 41.6193 291.559 50.0271 289.645 56.1993C288.612 59.5307 282.403 63.425 279.989 61.6736C278.459 60.5641 279.388 59.1075 279.989 58.1459C281.14 56.3045 281.533 53.9391 279.404 52.6571C277.567 51.5513 275.636 54.1771 275.599 54.1742C275.095 54.1344 270.732 51.6639 267.727 48.0587C264.762 48.2347 264.312 46.2769 265.02 44.6758C265.728 43.0747 270.147 41.0597 272.529 40.6682Z" fill="#CF3E2A"/>
<path fill-rule="evenodd" clip-rule="evenodd" d="M298.316 136.194L276.328 213.507L260.285 270.49H248.584L265.632 136.194H298.316Z" fill="#191847"/>
<path fill-rule="evenodd" clip-rule="evenodd" d="M304.196 136.194C304.705 176.042 306.439 197.776 306.973 201.396C307.507 205.017 315.582 228.048 331.196 270.49H319.075C299.196 229.774 288.099 206.743 285.785 201.396C283.47 196.05 276.326 174.316 265.566 136.194H304.196Z" fill="#2F3676"/>
<path fill-rule="evenodd" clip-rule="evenodd" d="M332.28 281.428L331.674 268.667L318.937 268.667C309.879 275.048 295.284 278.998 295.284 278.998V281.428H318.331L326.215 280.213V281.428H332.28Z" fill="#191847"/>
<path fill-rule="evenodd" clip-rule="evenodd" d="M261.927 281.428L261.32 268.667L248.584 268.667C239.525 275.048 224.931 278.998 224.931 278.998V281.428H247.977L255.862 280.213V281.428H261.927Z" fill="#191847"/>
<path fill-rule="evenodd" clip-rule="evenodd" d="M229.083 149.929L246.293 133.169L252.005 143.039L234.111 153.573C229.623 160.629 226.988 163.678 226.205 162.72C225.544 161.912 225.847 161.026 226.126 160.211C226.344 159.575 226.547 158.982 226.268 158.501C225.633 157.403 222.04 158.033 218.657 158.776C215.274 159.519 216.057 157.86 216.776 156.994C219.974 154.417 224.077 152.062 229.083 149.929ZM333.183 160.569C330.919 157.247 320.027 123.301 320.027 123.301L307.464 125.117C307.464 125.117 324.378 160.995 325.628 163.16C327.253 165.972 325.814 170.592 324.839 173.725C324.688 174.21 324.548 174.659 324.432 175.06C326.48 175.65 327.259 174.48 328.08 173.246C329.008 171.853 329.99 170.378 332.914 171.267C334.043 171.611 335.129 172.052 336.189 172.483C339.851 173.972 343.216 175.34 347.081 172.139C347.694 171.631 348.211 169.972 346.264 169.006C341.412 166.598 334.29 162.193 333.183 160.569Z" fill="#B28B67"/>
<path fill-rule="evenodd" clip-rule="evenodd" d="M276.907 75.6731L271.581 75.5135C254.622 94.8662 251.189 127.949 229.915 148.208L236.598 154.452C276.921 143.614 281.611 103.19 276.907 75.6731Z" fill="#E87613"/>
<path fill-rule="evenodd" clip-rule="evenodd" d="M308.75 137.732C308.75 137.732 277.469 142.128 262.73 144.199C260.627 144.495 260.598 141.408 260.687 139.836C261.714 121.691 272.735 100.738 269.204 75.61L282.186 71.6666C295.643 87.7505 302.49 108.919 308.75 137.732Z" fill="#DDE3E9"/>
<path fill-rule="evenodd" clip-rule="evenodd" d="M299.774 86.6524C302.165 86.1406 304.203 84.8253 305.232 82.1494C308.856 72.7285 306.428 68.1633 301.02 67.3104C298.047 66.8414 295.449 67.8119 292.339 68.9736C289.793 69.9245 286.904 71.0036 283.186 71.5262C282.825 71.5768 282.501 71.647 282.21 71.7349L277.84 72.6048C277.84 72.6048 268.46 135.622 279.322 154.725L315.697 149.613C318.462 154.281 321.098 158.323 323.477 161.377L333.346 159.99C329.591 125.569 312.887 101.025 299.774 86.6524Z" fill="#FF9B21"/>
<path fill-rule="evenodd" clip-rule="evenodd" d="M315.697 149.613C312.069 143.488 308.219 136.286 304.439 128.819C304.656 137.596 304.215 146.504 302.102 151.524L315.697 149.613Z" fill="black" fill-opacity="0.1"/>
<path fill-rule="evenodd" clip-rule="evenodd" d="M91.7724 124.711C95.7897 127.135 99.7368 128.305 101.59 127.827C106.236 126.629 106.663 109.62 103.068 102.915C99.4731 96.2098 80.9924 93.2872 80.0609 106.573C79.7376 111.183 81.6723 115.298 84.5309 118.656L79.4053 142.563H94.2939L91.7724 124.711Z" fill="#D4A181"/>
<path fill-rule="evenodd" clip-rule="evenodd" d="M84.989 103.453C93.5805 103.514 99.5584 103.152 102.979 102.211C102.823 99.2971 99.7964 96.0031 91.813 96.0031C82.9306 96.0031 78.165 101.184 78.165 107.177C78.165 112.653 81.6875 119.322 84.3686 119.593C85.0634 119.441 85.6565 118.604 86.2464 117.45C85.142 116.912 84.3686 115.645 84.3686 114.006C84.3686 112.431 85.7573 110.902 87.4704 110.902C88.0953 110.902 88.677 111.106 89.1639 111.44C90.2895 109.626 91.7001 108.272 93.6741 108.419L92.4333 104.694L84.989 104.073V103.453Z" fill="#191847"/>
<path fill-rule="evenodd" clip-rule="evenodd" d="M152.738 241.066C151.583 253.693 152.737 280.837 153.358 288.666C153.748 293.587 160.45 292.299 161.076 288.361C161.182 287.694 161.613 285.35 162.258 281.852C165.417 264.703 173.686 219.819 173.701 208.905C173.708 203.9 162.574 199.899 158.12 205.944C154.458 203.37 149.26 202.68 146.055 207.878C143.629 211.814 137.865 222.987 131.717 236.034C126.331 247.464 117.916 275.21 117.916 275.21L125.06 278.476C125.06 278.476 142.709 250.082 153.82 230.174C153.451 233.6 153.085 237.267 152.738 241.066Z" fill="#D4A181"/>
<path fill-rule="evenodd" clip-rule="evenodd" d="M118.426 264.938L142.948 206.807C148.822 197.351 165.292 208.732 163.289 214.216C158.741 226.668 135.61 266.979 134.255 270.689L118.426 264.938Z" fill="#1F28CF"/>
<path fill-rule="evenodd" clip-rule="evenodd" d="M174.322 213.443C174.322 229.92 167.104 268.65 167.099 272.279L149.616 271.689C149.616 271.689 154.2 221.178 153.483 220.836C152.406 220.322 109.346 226.8 96.4319 227.289C77.8093 227.994 70.1056 216.561 69.4805 194.865L105.553 194.865C105.553 194.865 151.821 200.392 166.371 202.553C172.601 203.478 174.322 208.904 174.322 213.443Z" fill="#2B44FF"/>
<path fill-rule="evenodd" clip-rule="evenodd" d="M119.447 273.626C118.498 272.94 117.145 273.089 116.513 274.075C115.855 275.103 115.138 276.348 114.933 277.173C114.527 278.803 114.29 282.064 114.29 282.064C116.179 282.535 148.24 290.534 148.24 290.534C148.24 290.534 150.655 286.487 147.89 285.426C145.126 284.366 143.31 283.614 143.31 283.614L129.592 272.878C129.149 272.531 128.506 272.618 128.171 273.072L126.775 274.967C126.775 274.967 123.829 275.541 122.179 275.129C121.386 274.931 120.33 274.265 119.447 273.626Z" fill="#1A4056"/>
<path fill-rule="evenodd" clip-rule="evenodd" d="M154.891 279.015C153.804 278.579 152.527 279.051 152.153 280.161C151.763 281.317 151.368 282.699 151.368 283.549C151.368 285.229 151.927 288.45 151.927 288.45C153.874 288.45 186.917 288.45 186.917 288.45C186.917 288.45 188.281 283.938 185.342 283.578C182.404 283.219 180.46 282.929 180.46 282.929L164.554 275.833C164.04 275.603 163.437 275.844 163.222 276.365L162.326 278.541C162.326 278.541 159.605 279.812 157.905 279.812C157.088 279.812 155.902 279.421 154.891 279.015Z" fill="#1A4056"/>
<rect x="151.988" y="288.45" width="32.8791" height="4.34557" rx="2.17278" fill="#2F3676"/>
<path d="M61.416 208.435C61.416 202.912 65.8932 198.435 71.416 198.435H130.202C135.725 198.435 140.202 202.912 140.202 208.435V235.062H65.416C63.2069 235.062 61.416 233.271 61.416 231.062V208.435Z" fill="#2F3676"/>
<path fill-rule="evenodd" clip-rule="evenodd" d="M133.998 198.435C137.821 198.435 141.081 201.204 141.7 204.976L155.09 286.588H148.461" fill="#2F3676"/>
<path fill-rule="evenodd" clip-rule="evenodd" d="M151.989 299.004C158.156 299.004 163.155 294.001 163.155 287.829C163.155 281.658 158.156 276.655 151.989 276.655C145.822 276.655 140.822 281.658 140.822 287.829C140.822 294.001 145.822 299.004 151.989 299.004Z" fill="#191847"/>
<path fill-rule="evenodd" clip-rule="evenodd" d="M116.628 250.582C116.628 276.639 95.5193 297.762 69.4805 297.762C43.4416 297.762 22.333 276.639 22.333 250.582C22.333 224.524 43.4416 203.401 69.4805 203.401C95.5193 203.401 116.628 224.524 116.628 250.582ZM107.943 250.582C107.943 271.839 90.7226 289.071 69.4805 289.071C48.2383 289.071 31.0181 271.839 31.0181 250.582C31.0181 229.324 48.2383 212.092 69.4805 212.092C90.7226 212.092 107.943 229.324 107.943 250.582Z" fill="#191847"/>
<rect x="66.999" y="209.609" width="4.96288" height="81.9451" fill="#191847"/>
<rect width="4.96463" height="81.9164" rx="2" transform="matrix(0.706859 0.707355 -0.706859 0.707355 96.6777 219.854)" fill="#191847"/>
<rect x="110.424" y="248.098" width="4.96638" height="81.8877" rx="2" transform="rotate(90 110.424 248.098)" fill="#191847"/>
<rect width="4.96463" height="81.9164" rx="2" transform="matrix(-0.706859 0.707355 -0.706859 -0.707355 100.187 277.798)" fill="#191847"/>
<path fill-rule="evenodd" clip-rule="evenodd" d="M156.01 166.107L131.517 169.45L135.911 180.431L155.786 172.546C164.352 173.392 168.495 173.189 168.213 171.936C167.975 170.879 167.064 170.56 166.226 170.267C165.572 170.038 164.963 169.824 164.748 169.289C164.259 168.067 167.044 165.534 169.789 163.245C172.533 160.955 170.691 160.534 169.533 160.568C165.418 161.533 160.91 163.379 156.01 166.107ZM36.8483 226.313C38.6662 222.623 54.5732 175.123 54.5732 175.123L68.1575 175.174C68.1575 175.174 45.8141 225.49 44.8571 227.864C43.614 230.947 45.7257 235.426 47.1575 238.463C47.3791 238.933 47.5843 239.369 47.7584 239.759C45.7715 240.649 44.8171 239.573 43.811 238.44C42.6745 237.159 41.472 235.804 38.6411 237.122C37.5474 237.631 36.5125 238.233 35.5014 238.822C32.0088 240.853 28.8003 242.719 24.4355 240.024C23.7436 239.597 22.9853 237.988 24.8174 236.731C29.3819 233.599 35.9595 228.118 36.8483 226.313Z" fill="#D4A181"/>
<path fill-rule="evenodd" clip-rule="evenodd" d="M91.7825 132.009L102.419 132.718C105.038 156.434 119.306 171.413 151.251 166.342L155.495 196.882C125.638 200.743 99.4524 188.781 94.0859 156.393C92.6967 148.009 91.5997 139.284 91.7825 132.009Z" fill="#AFB9C5"/>
<path fill-rule="evenodd" clip-rule="evenodd" d="M38.7119 220.162C46.0965 180.844 61.6829 150.425 85.4712 128.905H86.4917H86.5266L86.5351 128.915L102.65 132.608C102.65 151.98 106.956 166.454 111.097 180.369C112.885 186.379 114.642 192.284 116.008 198.434H72.4856C71.8725 205.481 71.496 212.724 71.2999 220.162H38.7119Z" fill="#C5CFD6"/>
<path fill-rule="evenodd" clip-rule="evenodd" d="M72.4854 198.434C73.7336 184.088 75.9625 170.554 79.6471 157.833C78.8395 171.437 78.6153 188.314 81.331 198.434H72.4854Z" fill="black" fill-opacity="0.1"/>
<defs>
<clipPath id="clip0">
<rect width="288" height="81" fill="white" transform="translate(41.2637 225)"/>
</clipPath>
</defs>
</svg>
