<svg width="40" height="40" viewBox="0 0 40 40" fill="none" xmlns="http://www.w3.org/2000/svg">
<path d="M20 40C8.97778 40 0 31.0222 0 20C0 8.97778 8.97778 0 20 0C31.0222 0 40 8.97778 40 20C40 31.0222 31.0222 40 20 40ZM20 0.888889C9.42222 0.888889 0.888889 9.42222 0.888889 20C0.888889 30.5778 9.42222 39.1111 20 39.1111C30.5778 39.1111 39.1111 30.5778 39.1111 20C39.1111 9.42222 30.5778 0.888889 20 0.888889Z" fill="#BB6BD9"/>
<path d="M28.0893 26.9331H11.9115C11.0227 26.9331 10.2227 26.222 10.2227 25.2442V14.7553C10.2227 13.8664 10.9338 13.0664 11.9115 13.0664H28.0893C28.9782 13.0664 29.7782 13.7775 29.7782 14.7553V25.3331C29.6893 26.222 28.9782 26.9331 28.0893 26.9331ZM11.9115 13.9553C11.4671 13.9553 11.1115 14.3109 11.1115 14.7553V25.3331C11.1115 25.7775 11.4671 26.1331 11.9115 26.1331H28.0893C28.5338 26.1331 28.8893 25.7775 28.8893 25.3331V14.7553C28.8893 14.3109 28.5338 13.9553 28.0893 13.9553H11.9115Z" fill="#BB6BD9"/>
<path d="M28.089 26.933H11.9112C11.2001 26.933 10.5779 26.4885 10.4001 25.8663C10.3112 25.6885 10.4001 25.5107 10.489 25.333L16.8001 19.733C16.9779 19.5552 17.2445 19.5552 17.4223 19.733C17.6001 19.9107 17.6001 20.1774 17.4223 20.3552L11.3779 25.6885C11.5557 25.8663 11.7334 25.9552 11.9112 25.9552H28.089C28.2668 25.9552 28.5334 25.8663 28.6223 25.6885L22.489 20.2663C22.3112 20.0885 22.3112 19.8219 22.489 19.6441C22.6668 19.4663 22.9334 19.4663 23.1112 19.6441L29.5112 25.333C29.689 25.4219 29.689 25.6885 29.6001 25.7774C29.3334 26.4885 28.7112 26.933 28.089 26.933Z" fill="#BB6BD9"/>
<path d="M20.0002 22.9331C19.9113 22.9331 19.8224 22.9331 19.7335 22.8442L10.4891 14.6664C10.3113 14.5775 10.3113 14.3109 10.4002 14.1331C10.6669 13.5109 11.2891 13.0664 11.9113 13.0664H28.0891C28.8002 13.0664 29.4224 13.5109 29.6002 14.1331C29.6891 14.3109 29.6002 14.4886 29.5113 14.5775L20.3557 22.7553C20.178 22.9331 20.0891 22.9331 20.0002 22.9331ZM11.378 14.222L20.0002 21.9553L28.6224 14.222C28.4446 14.0442 28.2669 13.9553 28.0891 13.9553H11.9113C11.7335 13.9553 11.5557 14.0442 11.378 14.222Z" fill="#BB6BD9"/>
</svg>
