<svg width="30" height="22" viewBox="0 0 30 22" fill="none" xmlns="http://www.w3.org/2000/svg">
<path d="M27.4092 21.6364H2.59092C1.22728 21.6364 0 20.5455 0 19.0455V2.95457C0 1.59092 1.09091 0.363647 2.59092 0.363647H27.4092C28.7728 0.363647 30.0001 1.45456 30.0001 2.95457V19.1819C29.8637 20.5455 28.7728 21.6364 27.4092 21.6364ZM2.59092 1.72729C1.9091 1.72729 1.36364 2.27275 1.36364 2.95457V19.1819C1.36364 19.8637 1.9091 20.4092 2.59092 20.4092H27.4092C28.091 20.4092 28.6364 19.8637 28.6364 19.1819V2.95457C28.6364 2.27275 28.091 1.72729 27.4092 1.72729H2.59092Z" fill="#BB6BD9"/>
<path d="M27.4092 21.6364H2.59098C1.50007 21.6364 0.54552 20.9546 0.272792 20C0.136428 19.7273 0.272793 19.4546 0.409157 19.1818L10.091 10.5909C10.3637 10.3182 10.7728 10.3182 11.0456 10.5909C11.3183 10.8636 11.3183 11.2727 11.0456 11.5455L1.7728 19.7273C2.04553 20 2.31825 20.1364 2.59098 20.1364H27.4092C27.682 20.1364 28.0911 20 28.2274 19.7273L18.8183 11.4091C18.5456 11.1364 18.5456 10.7273 18.8183 10.4545C19.091 10.1818 19.5001 10.1818 19.7728 10.4545L29.5911 19.1818C29.8638 19.3182 29.8638 19.7273 29.7274 19.8637C29.3183 20.9546 28.3638 21.6364 27.4092 21.6364Z" fill="#BB6BD9"/>
<path d="M15 15.5001C14.8636 15.5001 14.7273 15.5001 14.5909 15.3637L0.409041 2.8182C0.136313 2.68184 0.136313 2.27274 0.272677 2.00002C0.681769 1.04547 1.63632 0.363647 2.59086 0.363647H27.4091C28.5 0.363647 29.4546 1.04547 29.7273 2.00002C29.8637 2.27274 29.7273 2.54547 29.5909 2.68184L15.5454 15.2273C15.2727 15.5001 15.1364 15.5001 15 15.5001ZM1.77268 2.13638L15 14L28.2273 2.13638C27.9546 1.86365 27.6818 1.72729 27.4091 1.72729H2.59086C2.31814 1.72729 2.04541 1.86365 1.77268 2.13638Z" fill="#BB6BD9"/>
</svg>
