<svg width="794" height="646" viewBox="0 0 794 646" fill="none" xmlns="http://www.w3.org/2000/svg">
<path fill-rule="evenodd" clip-rule="evenodd" d="M323.021 191.673C330.672 192.218 337.291 190.993 339.636 188.921C345.516 183.728 333.521 158.647 323.309 151.554C313.097 144.46 284.004 153.924 292.502 173.958C295.452 180.911 301.323 185.466 307.979 188.232L318.246 226.844L339.938 215.791L323.021 191.673Z" fill="#B28B67"/>
<path fill-rule="evenodd" clip-rule="evenodd" d="M321.224 141.079C323.684 145.906 321.909 151.778 317.274 154.46C314.977 156.689 311.791 159.091 308.04 161.33C309.14 162.555 310.165 164.062 311.093 165.882C311.912 167.489 312.603 169.284 313.158 171.181C311.806 170.609 310.347 170.53 309.204 171.112C306.007 172.741 305.121 176.505 306.544 179.298C308.35 182.842 311.703 184.364 314.794 183.047C314.735 189.581 312.996 195.365 309.279 197.259C302.22 200.856 292.391 193.975 287.22 183.827C287.038 183.47 286.865 183.112 286.7 182.754C285.146 185.611 284.026 188.889 282.899 192.191C280.504 199.206 278.072 206.328 271.354 209.752C257.91 216.601 238.756 192.207 257.538 182.637C270.311 176.128 277.543 174.789 284.361 174.784C283.895 171.23 284.233 167.87 285.323 165.088C285.528 164.302 286.002 163.409 286.709 162.444C287.124 161.837 287.589 161.277 288.102 160.772C290.756 157.907 295.056 154.649 300.249 151.77C301.218 151.233 302.181 150.73 303.133 150.261C300.612 145.274 302.599 139.184 307.581 136.646C312.572 134.102 318.681 136.087 321.224 141.079Z" fill="#191847"/>
<path fill-rule="evenodd" clip-rule="evenodd" d="M331.54 301.704L369.713 426.499L388.204 532.629L402.703 532.629L383.164 301.704L331.54 301.704Z" fill="#997659"/>
<path fill-rule="evenodd" clip-rule="evenodd" d="M317.884 301.704C320.477 370.223 317.425 405.567 316.845 411.792C316.265 418.017 308.319 458.382 289.507 534.719L304.957 529.413C334.687 459.401 344.817 423.014 348.227 413.821C351.637 404.627 360.693 367.255 375.396 301.704L317.884 301.704Z" fill="#B28B67"/>
<path fill-rule="evenodd" clip-rule="evenodd" d="M292.406 528.19C291.335 527.717 290.061 528.194 289.661 529.295C288.922 531.331 287.921 534.406 287.921 536.136C287.921 538.88 288.835 544.144 288.835 544.144C292.018 544.144 346.049 544.144 346.049 544.144C346.049 544.144 348.279 536.771 343.474 536.184C338.669 535.596 335.491 535.122 335.491 535.122L308.885 523.261C308.37 523.032 307.768 523.272 307.553 523.793L305.838 527.953C305.838 527.953 301.39 530.029 298.609 530.029C296.907 530.029 294.229 528.993 292.406 528.19Z" fill="#E4E4E4"/>
<path fill-rule="evenodd" clip-rule="evenodd" d="M387.759 528.19C386.688 527.717 385.415 528.194 385.015 529.295C384.275 531.331 383.274 534.406 383.274 536.136C383.274 538.88 384.189 544.144 384.189 544.144C387.372 544.144 441.402 544.144 441.402 544.144C441.402 544.144 443.632 536.771 438.828 536.184C434.023 535.596 430.844 535.122 430.844 535.122L404.239 523.261C403.724 523.032 403.122 523.272 402.907 523.793L401.192 527.953C401.192 527.953 396.744 530.029 393.963 530.029C392.261 530.029 389.582 528.993 387.759 528.19Z" fill="#E4E4E4"/>
<path fill-rule="evenodd" clip-rule="evenodd" d="M326.468 301.704L342.698 365.286L392.272 365.286L384.88 301.704L326.468 301.704Z" fill="#69A1AC"/>
<path fill-rule="evenodd" clip-rule="evenodd" d="M317.338 301.704C309.327 325.716 314.295 365.286 314.295 365.286L364.883 365.286L378.794 301.704L317.338 301.704Z" fill="#89C5CC"/>
<path fill-rule="evenodd" clip-rule="evenodd" d="M418.605 168.493L384.09 188.994L397.572 202.488L422.323 178.184C435.662 174.002 441.727 171.071 440.517 169.392C439.497 167.977 437.935 168.082 436.496 168.178C435.375 168.254 434.329 168.324 433.672 167.666C432.172 166.165 434.741 160.643 437.404 155.506C440.066 150.37 437.046 150.914 435.336 151.699C429.791 155.742 424.214 161.34 418.605 168.493ZM434.338 270.819L397.194 255.592L394.531 274.479L428.836 279.62C440.204 287.756 446.195 290.836 446.807 288.859C447.324 287.193 446.3 286.008 445.357 284.918C444.622 284.068 443.936 283.275 444.066 282.354C444.363 280.253 450.319 278.981 456.023 278.016C461.728 277.051 459.476 274.967 457.82 274.074C451.254 272.079 443.427 270.994 434.338 270.819Z" fill="#B28B67"/>
<path fill-rule="evenodd" clip-rule="evenodd" d="M332.947 205.662C357.993 233.279 388.809 251.553 430.986 268.021L421.23 286.707C377.502 281.813 354.144 278.106 336.262 250.572C331.774 243.662 323.946 220.017 319.224 207.727L332.947 205.662Z" fill="#AF80FC"/>
<path fill-rule="evenodd" clip-rule="evenodd" d="M311.633 323.794L387.422 304.898C387.422 304.898 342.089 232.782 334.234 203.653C333.967 202.663 331.692 201.368 330.937 201.8C322.649 206.541 311.386 204.675 311.386 204.675C300.623 238.051 303.28 275.177 311.633 323.794Z" fill="#F2F2F2"/>
<path fill-rule="evenodd" clip-rule="evenodd" d="M341.387 244.021C365.884 291.844 375.701 333.544 349.569 340.06L309.158 350.135C291.986 308.603 293.943 244.593 302.06 210.53C302.37 209.229 303.1 206.74 306.095 205.994L317.837 203.066C317.846 203.08 317.855 203.095 317.864 203.109C321.405 202.257 325.329 201.416 329.578 200.505C351.451 195.816 381.951 189.279 413.264 169.865L422.277 188.917C396.481 216.336 369.188 239.398 341.387 244.021Z" fill="#C5A6F8"/>
<path fill-rule="evenodd" clip-rule="evenodd" d="M589.571 93.9259C581.488 98.7981 573.545 101.152 569.817 100.191C560.469 97.7815 559.609 63.5812 566.843 50.0984C574.076 36.6155 611.263 30.7388 613.137 57.4526C613.787 66.7241 609.894 74.9983 604.142 81.75L614.456 129.821H584.497L589.571 93.9259Z" fill="#B28B67"/>
<path fill-rule="evenodd" clip-rule="evenodd" d="M581.388 38.9114C584.932 38.3295 594.473 37.9294 596.232 37.9296C597.357 37.9296 598.575 38.1869 599.241 37.153C599.787 36.3063 599.587 34.8744 599.75 33.8918C599.939 32.7505 600.207 31.6238 600.479 30.5C601.251 27.3022 602.42 24.2598 604.054 21.4034C607.122 16.0445 611.616 11.8468 617.289 9.40415C623.554 6.70712 630.643 6.08955 637.382 6.63661C644.593 7.22188 651.121 9.60587 657.93 11.8494C664.418 13.9872 671.214 14.8287 678 13.7847C684.837 12.733 690.003 9.02189 695.771 5.49963C701.674 1.89368 708.421 -0.464739 715.401 0.0774054C721.916 0.583648 727.921 3.27758 733.308 6.8763C738.348 10.2433 742.507 14.2943 744.855 19.9957C747.381 26.1288 747.379 32.8608 743.225 38.2809C737.204 46.1375 726.027 48.1692 716.728 47.9672C711.349 47.8507 706.066 46.8674 700.988 45.0788C694.215 42.6932 688.363 38.65 682.027 35.3695C679.054 33.8301 675.98 32.5658 672.759 31.6551C669.633 30.771 666.554 30.3654 663.723 32.2566C660.729 34.2573 658.046 36.2226 654.62 37.4751C651.334 38.6766 647.854 39.3487 644.352 39.3215C637.541 39.2689 630.826 37.1434 624.21 35.7197C618.815 34.559 613.042 33.4021 607.542 34.5179C605.247 34.9836 601.895 35.945 601.066 38.3336C615.018 40.8658 620.497 58.1453 616.564 70.83C614.441 77.6764 601.681 85.6798 596.719 82.0805C593.576 79.8003 595.484 76.8068 596.719 74.8306C599.084 71.0462 599.893 66.185 595.517 63.5502C591.742 61.2778 587.773 66.6741 587.698 66.6682C586.661 66.5863 577.696 61.509 571.519 54.0999C565.426 54.4616 564.501 50.4381 565.956 47.1476C567.411 43.8571 576.493 39.716 581.388 38.9114Z" fill="#CF3E2A"/>
<path fill-rule="evenodd" clip-rule="evenodd" d="M634.386 235.232L589.196 394.12L556.226 511.23H532.178L567.214 235.232H634.386Z" fill="#191847"/>
<path fill-rule="evenodd" clip-rule="evenodd" d="M646.471 235.232C647.516 317.125 651.08 361.791 652.178 369.232C653.275 376.672 669.869 424.005 701.959 511.23H677.048C636.194 427.552 613.389 380.219 608.632 369.232C603.874 358.244 589.192 313.577 567.079 235.232H646.471Z" fill="#2F3676"/>
<path fill-rule="evenodd" clip-rule="evenodd" d="M704.186 533.709L702.939 507.483L676.764 507.483C658.147 520.596 628.153 528.713 628.153 528.713V533.709H675.518L691.721 531.211V533.709H704.186Z" fill="#191847"/>
<path fill-rule="evenodd" clip-rule="evenodd" d="M559.6 533.709L558.353 507.483L532.178 507.483C513.561 520.596 483.567 528.713 483.567 528.713V533.709H530.932L547.135 531.211V533.709H559.6Z" fill="#191847"/>
<path fill-rule="evenodd" clip-rule="evenodd" d="M492.103 263.459L527.471 229.014L539.21 249.298L502.435 270.948C493.212 285.449 487.796 291.715 486.186 289.745C484.829 288.085 485.452 286.265 486.025 284.588C486.472 283.282 486.889 282.063 486.317 281.075C485.011 278.818 477.628 280.113 470.675 281.64C463.721 283.167 465.331 279.757 466.809 277.978C473.382 272.682 481.813 267.842 492.103 263.459ZM706.042 285.325C701.388 278.499 679.004 208.735 679.004 208.735L653.186 212.466C653.186 212.466 687.947 286.2 690.516 290.65C693.855 296.43 690.898 305.924 688.894 312.363C688.584 313.359 688.296 314.282 688.058 315.106C692.266 316.318 693.867 313.913 695.555 311.378C697.462 308.515 699.48 305.485 705.489 307.312C707.81 308.018 710.041 308.924 712.22 309.81C719.747 312.87 726.661 315.681 734.606 309.102C735.865 308.059 736.927 304.649 732.925 302.663C722.955 297.716 708.317 288.663 706.042 285.325Z" fill="#B28B67"/>
<path fill-rule="evenodd" clip-rule="evenodd" d="M590.387 110.851L579.441 110.523C544.588 150.296 537.532 218.285 493.811 259.921L507.546 272.754C590.415 250.479 600.055 167.403 590.387 110.851Z" fill="#E87613"/>
<path fill-rule="evenodd" clip-rule="evenodd" d="M655.828 238.391C655.828 238.391 591.539 247.426 561.25 251.683C556.928 252.291 556.867 245.947 557.05 242.716C559.161 205.424 581.811 162.363 574.553 110.722L601.234 102.618C628.89 135.672 642.962 179.177 655.828 238.391Z" fill="#DDE3E9"/>
<path fill-rule="evenodd" clip-rule="evenodd" d="M670.104 262.809C675.787 272.402 681.205 280.708 686.092 286.986L706.376 284.136C698.659 213.395 664.328 162.952 637.379 133.415C642.293 132.364 646.482 129.661 648.598 124.161C656.045 104.8 651.054 95.4175 639.941 93.6648C633.83 92.701 628.491 94.6955 622.099 97.0829C616.869 99.0366 610.934 101.253 603.296 102.328C603.293 102.328 603.291 102.328 603.288 102.329C602.548 102.433 601.881 102.577 601.283 102.758L592.303 104.546C592.303 104.546 573.024 234.055 595.348 273.315L670.104 262.809Z" fill="#FF9B21"/>
<path fill-rule="evenodd" clip-rule="evenodd" d="M670.104 262.809C662.648 250.222 654.736 235.419 646.967 220.075C647.413 238.113 646.506 256.419 642.164 266.736L670.104 262.809Z" fill="black" fill-opacity="0.1"/>
<path fill-rule="evenodd" clip-rule="evenodd" d="M188.607 196.999C196.863 201.979 204.975 204.385 208.783 203.402C218.331 200.94 219.209 165.984 211.821 152.204C204.433 138.424 166.453 132.417 164.538 159.721C163.874 169.197 167.85 177.654 173.725 184.554L163.191 233.686H193.789L188.607 196.999Z" fill="#D4A181"/>
<path fill-rule="evenodd" clip-rule="evenodd" d="M174.666 153.309C192.323 153.435 204.608 152.691 211.639 150.757C211.318 144.769 205.097 137.999 188.69 137.999C170.436 137.999 160.642 148.646 160.642 160.964C160.642 172.217 167.881 185.923 173.391 186.48C174.819 186.168 176.038 184.447 177.25 182.075C174.98 180.97 173.391 178.366 173.391 174.998C173.391 171.76 176.245 168.619 179.766 168.619C181.05 168.619 182.245 169.037 183.246 169.725C185.559 165.997 188.458 163.212 192.515 163.516L189.965 155.861L174.666 154.585V153.309Z" fill="#191847"/>
<path fill-rule="evenodd" clip-rule="evenodd" d="M313.899 436.124C311.526 462.076 313.897 517.859 315.173 533.951C315.976 544.064 329.749 541.416 331.034 533.322C331.252 531.951 332.14 527.134 333.464 519.946C339.957 484.701 356.952 392.458 356.982 370.028C356.995 359.744 334.114 351.519 324.96 363.943C317.434 358.653 306.751 357.235 300.165 367.919C295.179 376.007 283.333 398.97 270.698 425.783C259.63 449.273 242.335 506.295 242.335 506.295L257.018 513.008C257.018 513.008 293.287 454.653 316.124 413.74C315.366 420.78 314.612 428.318 313.899 436.124Z" fill="#D4A181"/>
<path fill-rule="evenodd" clip-rule="evenodd" d="M243.384 485.184L293.779 365.718C305.852 346.284 339.701 369.673 335.584 380.945C326.237 406.535 278.7 489.38 275.915 497.005L243.384 485.184Z" fill="#1F28CF"/>
<path fill-rule="evenodd" clip-rule="evenodd" d="M358.256 379.356C358.256 413.218 343.424 492.815 343.414 500.271L307.483 499.059C307.483 499.059 316.904 395.252 315.429 394.548C313.217 393.493 224.722 406.805 198.182 407.81C159.91 409.26 144.077 385.764 142.792 341.176L216.927 341.176C216.927 341.176 312.014 352.534 341.917 356.975C354.719 358.877 358.256 370.028 358.256 379.356Z" fill="#2B44FF"/>
<path fill-rule="evenodd" clip-rule="evenodd" d="M243.652 501.653C242.733 500.926 241.382 501.079 240.722 502.046C239.201 504.273 236.768 508.069 236.204 510.33C235.37 513.679 234.884 520.381 234.884 520.381C238.766 521.35 304.657 537.79 304.657 537.79C304.657 537.79 309.618 529.471 303.938 527.291C298.257 525.112 294.525 523.566 294.525 523.566L265.477 500.834C265.033 500.486 264.39 500.574 264.056 501.028L260.543 505.796C260.543 505.796 254.487 506.975 251.096 506.129C248.861 505.571 245.609 503.203 243.652 501.653Z" fill="#1A4056"/>
<path fill-rule="evenodd" clip-rule="evenodd" d="M316.212 513.212C315.145 512.729 313.871 513.205 313.464 514.303C312.527 516.831 311.083 521.104 311.083 523.434C311.083 526.885 312.233 533.506 312.233 533.506C316.233 533.506 384.141 533.506 384.141 533.506C384.141 533.506 386.944 524.233 380.905 523.494C374.866 522.754 370.872 522.158 370.872 522.158L337.191 507.133C336.676 506.903 336.074 507.144 335.859 507.665L333.603 513.142C333.603 513.142 328.012 515.752 324.517 515.752C322.214 515.752 318.486 514.242 316.212 513.212Z" fill="#1A4056"/>
<rect x="312.358" y="533.506" width="67.5715" height="8.93079" rx="4" fill="#2F3676"/>
<path d="M126.218 358.511C126.218 352.988 130.695 348.511 136.218 348.511H278.135C283.658 348.511 288.135 352.988 288.135 358.511V423.785H130.218C128.009 423.785 126.218 421.994 126.218 419.785V358.511Z" fill="#2F3676"/>
<path fill-rule="evenodd" clip-rule="evenodd" d="M275.386 348.511H280.516C285.414 348.511 289.591 352.059 290.384 356.892L318.733 529.679H305.11" fill="#2F3676"/>
<path fill-rule="evenodd" clip-rule="evenodd" d="M312.358 555.195C325.033 555.195 335.307 544.913 335.307 532.23C335.307 519.547 325.033 509.265 312.358 509.265C299.684 509.265 289.41 519.547 289.41 532.23C289.41 544.913 299.684 555.195 312.358 555.195Z" fill="#191847"/>
<path fill-rule="evenodd" clip-rule="evenodd" d="M239.687 455.68C239.687 509.232 196.305 552.643 142.792 552.643C89.2783 552.643 45.897 509.232 45.897 455.68C45.897 402.129 89.2783 358.717 142.792 358.717C196.305 358.717 239.687 402.129 239.687 455.68ZM221.838 455.68C221.838 499.367 186.448 534.782 142.792 534.782C99.1361 534.782 63.746 499.367 63.746 455.68C63.746 411.994 99.1361 376.579 142.792 376.579C186.448 376.579 221.838 411.994 221.838 455.68Z" fill="#191847"/>
<rect x="137.692" y="371.476" width="10.1994" height="168.409" fill="#191847"/>
<rect width="10.203" height="168.35" rx="2" transform="matrix(0.706859 0.707355 -0.706859 0.707355 198.686 392.53)" fill="#191847"/>
<rect x="226.938" y="450.577" width="10.2066" height="168.291" rx="2" transform="rotate(90 226.938 450.577)" fill="#191847"/>
<rect width="10.203" height="168.35" rx="2" transform="matrix(-0.706859 0.707355 -0.706859 -0.707355 205.898 511.614)" fill="#191847"/>
<path fill-rule="evenodd" clip-rule="evenodd" d="M320.623 282.072L270.285 288.943L279.316 311.511L320.161 295.307C337.767 297.045 346.28 296.627 345.701 294.052C345.212 291.88 343.341 291.225 341.617 290.621C340.275 290.151 339.021 289.712 338.581 288.612C337.576 286.101 343.299 280.896 348.94 276.19C354.58 271.485 350.794 270.619 348.414 270.689C339.956 272.673 330.693 276.467 320.623 282.072ZM75.7277 405.806C79.4639 398.221 112.155 300.603 112.155 300.603L140.073 300.708C140.073 300.708 94.1539 404.114 92.1871 408.992C89.6322 415.328 93.972 424.534 96.9148 430.776C97.37 431.742 97.7919 432.636 98.1495 433.439C94.0663 435.267 92.1049 433.057 90.037 430.727C87.7014 428.095 85.2301 425.311 79.4123 428.019C77.1646 429.066 75.0377 430.303 72.9597 431.512C65.7818 435.687 59.1879 439.522 50.2177 433.984C48.7956 433.106 47.2372 429.799 51.0025 427.216C60.3831 420.779 73.9012 409.514 75.7277 405.806Z" fill="#D4A181"/>
<path fill-rule="evenodd" clip-rule="evenodd" d="M188.626 211.997L210.485 213.454C215.868 262.192 245.191 292.977 310.843 282.555L319.565 345.319C258.203 353.255 204.389 328.671 193.36 262.11C190.505 244.879 188.25 226.947 188.626 211.997Z" fill="#AFB9C5"/>
<path fill-rule="evenodd" clip-rule="evenodd" d="M79.5581 393.165C94.7346 312.359 126.767 249.843 175.655 205.618H177.753H177.824L177.842 205.638L210.96 213.228C210.96 253.039 219.811 282.786 228.32 311.384C231.995 323.734 235.606 335.87 238.412 348.511H148.968C147.708 362.992 146.934 377.877 146.531 393.165H79.5581Z" fill="#C5CFD6"/>
<path fill-rule="evenodd" clip-rule="evenodd" d="M148.967 348.511C151.533 319.027 156.113 291.212 163.686 265.068C162.026 293.027 161.565 327.712 167.147 348.511H148.967Z" fill="black" fill-opacity="0.1"/>
</svg>
