<svg width="794" height="662" viewBox="0 0 794 662" fill="none" xmlns="http://www.w3.org/2000/svg">
<g opacity="0.5">
<path fill-rule="evenodd" clip-rule="evenodd" d="M706.726 560.953C715.866 592.219 494.215 612.613 303.435 598.381C112.655 584.149 25.1345 528.57 116.172 498.955C207.209 469.34 697.587 529.687 706.726 560.953Z" fill="#DDE3E9"/>
</g>
<g opacity="0.41">
<path fill-rule="evenodd" clip-rule="evenodd" d="M553.275 110.851C557.455 104.891 565.211 89.7544 571.095 87.6246C574.884 86.2529 573.779 100.442 573.826 103.148C574.008 113.616 572.989 124.017 571.731 134.397C569.463 153.117 562.05 169.789 551.881 185.721C546.649 193.919 540.511 202.217 532.011 207.333C528.098 209.688 523.39 210.083 519.526 212.112C515.026 214.475 517.477 212.565 515.448 217.255C512.632 223.765 511.731 232.165 510.428 239.112C504.445 271.004 489.959 439.591 492.47 472.031C492.693 474.907 488.684 475.594 488.484 472.084C487.42 453.472 496.625 324.585 501.27 282.435C505.914 240.285 510.614 203.048 515.326 188.465C521.043 170.773 531.368 149.498 539.963 132.999C543.955 125.335 548.307 117.934 553.275 110.851Z" fill="#69A1AC"/>
<path fill-rule="evenodd" clip-rule="evenodd" d="M584.298 317.578C595.175 309.593 606.949 324.663 597.106 332.65C591.665 337.064 585.977 335.494 582.774 331.815C580.695 334.349 578.75 336.999 576.88 339.237C571.184 346.056 565.8 353.038 560.655 360.184C549.966 375.027 540.806 390.709 531.229 406.105C521.777 421.299 512.401 436.571 503.834 452.151C496.577 465.35 486.904 480.878 484.419 495.349C488.189 464.659 502.494 435.161 519.529 408.106C536.425 381.273 555.816 351.969 581.978 330.793C579.315 326.877 579.241 321.288 584.298 317.578Z" fill="#C1DEE2"/>
<path fill-rule="evenodd" clip-rule="evenodd" d="M377.903 242.731C383.99 243.922 393.935 257.691 398.952 262.937C404.915 269.171 410.325 275.816 415.424 282.778C426.401 297.764 436.219 313.696 444.567 330.312C458.177 357.398 469.08 385.203 476.993 414.698C481.836 432.753 484.972 451.466 486.831 470.049C487.182 473.554 490.856 500.573 485.562 501.302C480.8 501.957 482.271 480.785 482.041 477.905C479.444 445.414 471.665 413.8 460.844 383.175C458.487 376.504 456.298 368.332 452.528 362.329C449.814 358.005 452.509 359.513 447.739 357.876C443.643 356.47 438.976 356.814 434.782 355.093C425.67 351.356 418.374 344.102 411.978 336.805C399.55 322.624 389.701 307.283 384.567 289.113C381.719 279.038 379.102 268.904 377.649 258.518C377.274 255.833 373.983 241.965 377.903 242.731Z" fill="#69A1AC"/>
<path fill-rule="evenodd" clip-rule="evenodd" d="M401.923 13.643C424.85 53.4045 443.691 97.0816 455.856 141.32C463.227 168.123 468.382 195.627 473.503 222.933C481.433 265.212 488.934 307.488 491.068 350.519C493.214 393.798 497.459 443.716 483.287 485.402C490.366 443.08 483.626 398.032 482.433 355.447C481.863 335.118 480.21 314.988 478.042 294.777C475.939 275.172 472.502 255.66 469.302 236.209C467.743 226.736 466.106 217.278 464.439 207.824C463.941 205.004 463.731 196.634 461.942 194.707C460.141 192.768 450.953 191.977 448.069 190.554C442.261 187.688 436.797 183.617 431.962 179.315C422.692 171.068 414.628 160.293 408.264 149.671C393.537 125.094 387.65 95.101 387.947 66.6375C388.004 61.1111 396.892 1.60138 393.323 0.781881C393.537 0.530191 393.741 0.270314 393.932 0C396.635 4.52457 399.287 9.07979 401.923 13.643Z" fill="#89C5CC"/>
<path fill-rule="evenodd" clip-rule="evenodd" d="M649.383 157.047C649.736 156.536 652.039 152.988 650.879 153.215C653.24 152.753 647.632 157.128 653.514 154.444C650.721 157.081 652.333 160.507 652.371 164.057C652.431 169.821 651.467 175.537 650.382 181.177C648.666 190.091 646.111 198.759 642.402 207.051C634.318 225.121 620.592 242.516 604.296 253.813C596.251 259.391 588.367 261.29 579.192 263.858C573.396 265.48 572.937 268.478 569.861 274.102C563.456 285.815 557.166 297.486 551.517 309.594C544.773 324.053 538.226 338.528 532.05 353.241C511.245 402.801 494.312 454.147 485.419 507.285C485.201 475.971 492.445 443.72 501.583 413.873C508.239 392.127 516.904 371.164 526.146 350.414C528.386 345.387 531.779 338.92 532.73 333.37C533.396 329.482 531.36 325.742 530.428 321.646C526.794 305.693 527.054 287.822 530.245 271.785C533.764 254.1 543.94 245.893 561.154 243.388C567.449 242.472 575.451 242.807 581.223 240.123C587.513 237.2 590.107 227.592 593.683 221.424C603.289 204.857 614.702 188.968 627.807 175.008C631.436 171.142 635.338 167.576 639.478 164.271C642.088 162.185 647.603 159.616 649.383 157.047Z" fill="#89C5CC"/>
<path fill-rule="evenodd" clip-rule="evenodd" d="M451.446 479.195C451.001 476.176 453.341 473.466 456.393 473.466H517.421C520.473 473.466 522.813 476.176 522.367 479.195L517.664 511.091C516.217 520.903 507.796 528.173 497.878 528.173H475.936C466.017 528.173 457.597 520.903 456.15 511.091L451.446 479.195Z" fill="#C1DEE2"/>
</g>
<path fill-rule="evenodd" clip-rule="evenodd" d="M323.021 207.673C330.672 208.218 337.291 206.993 339.636 204.921C345.516 199.728 333.521 174.647 323.309 167.554C313.097 160.46 284.004 169.924 292.502 189.958C295.452 196.911 301.323 201.466 307.979 204.232L318.246 242.844L339.938 231.791L323.021 207.673Z" fill="#B28B67"/>
<path fill-rule="evenodd" clip-rule="evenodd" d="M321.224 157.079C323.684 161.906 321.909 167.778 317.274 170.46C314.977 172.689 311.791 175.091 308.04 177.33C309.14 178.555 310.165 180.062 311.093 181.882C311.912 183.489 312.603 185.284 313.158 187.181C311.806 186.609 310.347 186.53 309.204 187.112C306.007 188.741 305.121 192.505 306.544 195.298C308.35 198.842 311.703 200.364 314.794 199.047C314.735 205.581 312.996 211.365 309.279 213.259C302.22 216.856 292.391 209.975 287.22 199.827C287.038 199.47 286.865 199.112 286.7 198.754C285.146 201.611 284.026 204.889 282.899 208.191C280.504 215.206 278.072 222.328 271.354 225.752C257.91 232.601 238.756 208.207 257.538 198.637C270.311 192.128 277.543 190.789 284.361 190.784C283.895 187.23 284.233 183.87 285.323 181.088C285.528 180.302 286.002 179.409 286.709 178.444C287.124 177.837 287.589 177.277 288.102 176.772C290.756 173.907 295.056 170.649 300.249 167.77C301.218 167.233 302.181 166.73 303.133 166.261C300.612 161.274 302.599 155.184 307.581 152.646C312.572 150.102 318.681 152.087 321.224 157.079Z" fill="#191847"/>
<path fill-rule="evenodd" clip-rule="evenodd" d="M331.54 317.704L369.713 442.499L388.204 548.629L402.703 548.629L383.164 317.704L331.54 317.704Z" fill="#997659"/>
<path fill-rule="evenodd" clip-rule="evenodd" d="M317.884 317.704C320.477 386.223 317.425 421.567 316.845 427.792C316.265 434.017 308.319 474.382 289.507 550.719L304.957 545.413C334.687 475.401 344.817 439.014 348.227 429.821C351.637 420.627 360.693 383.255 375.396 317.704L317.884 317.704Z" fill="#B28B67"/>
<path fill-rule="evenodd" clip-rule="evenodd" d="M292.406 544.19C291.335 543.717 290.061 544.194 289.661 545.295C288.922 547.331 287.921 550.406 287.921 552.136C287.921 554.88 288.835 560.144 288.835 560.144C292.018 560.144 346.049 560.144 346.049 560.144C346.049 560.144 348.279 552.771 343.474 552.184C338.669 551.596 335.491 551.122 335.491 551.122L308.885 539.261C308.37 539.032 307.768 539.272 307.553 539.793L305.838 543.953C305.838 543.953 301.39 546.029 298.609 546.029C296.907 546.029 294.229 544.993 292.406 544.19Z" fill="#E4E4E4"/>
<path fill-rule="evenodd" clip-rule="evenodd" d="M387.759 544.19C386.688 543.717 385.415 544.194 385.015 545.295C384.275 547.331 383.274 550.406 383.274 552.136C383.274 554.88 384.189 560.144 384.189 560.144C387.372 560.144 441.402 560.144 441.402 560.144C441.402 560.144 443.632 552.771 438.828 552.184C434.023 551.596 430.844 551.122 430.844 551.122L404.239 539.261C403.724 539.032 403.122 539.272 402.907 539.793L401.192 543.953C401.192 543.953 396.744 546.029 393.963 546.029C392.261 546.029 389.582 544.993 387.759 544.19Z" fill="#E4E4E4"/>
<path fill-rule="evenodd" clip-rule="evenodd" d="M326.468 317.704L342.698 381.286L392.272 381.286L384.88 317.704L326.468 317.704Z" fill="#69A1AC"/>
<path fill-rule="evenodd" clip-rule="evenodd" d="M317.338 317.704C309.327 341.716 314.295 381.286 314.295 381.286L364.883 381.286L378.794 317.704L317.338 317.704Z" fill="#89C5CC"/>
<path fill-rule="evenodd" clip-rule="evenodd" d="M418.605 184.493L384.09 204.994L397.572 218.488L422.323 194.184C435.662 190.002 441.727 187.071 440.517 185.392C439.497 183.977 437.935 184.082 436.496 184.178C435.375 184.254 434.329 184.324 433.672 183.666C432.172 182.165 434.741 176.643 437.404 171.506C440.066 166.37 437.046 166.914 435.336 167.699C429.791 171.742 424.214 177.34 418.605 184.493ZM434.338 286.819L397.194 271.592L394.531 290.479L428.836 295.62C440.204 303.756 446.195 306.836 446.807 304.859C447.324 303.193 446.3 302.008 445.357 300.918C444.622 300.068 443.936 299.275 444.066 298.354C444.363 296.253 450.319 294.981 456.023 294.016C461.728 293.051 459.476 290.967 457.82 290.074C451.254 288.079 443.427 286.994 434.338 286.819Z" fill="#B28B67"/>
<path fill-rule="evenodd" clip-rule="evenodd" d="M332.947 221.662C357.993 249.279 388.809 267.553 430.986 284.021L421.23 302.707C377.502 297.813 354.144 294.106 336.262 266.572C331.774 259.662 323.946 236.017 319.224 223.727L332.947 221.662Z" fill="#AF80FC"/>
<path fill-rule="evenodd" clip-rule="evenodd" d="M311.633 339.794L387.422 320.898C387.422 320.898 342.089 248.782 334.234 219.653C333.967 218.663 331.692 217.368 330.937 217.8C322.649 222.541 311.386 220.675 311.386 220.675C300.623 254.051 303.28 291.177 311.633 339.794Z" fill="#F2F2F2"/>
<path fill-rule="evenodd" clip-rule="evenodd" d="M341.387 260.021C365.884 307.844 375.701 349.544 349.569 356.06L309.158 366.135C291.986 324.603 293.943 260.593 302.06 226.53C302.37 225.229 303.1 222.74 306.095 221.994L317.837 219.066C317.846 219.08 317.855 219.095 317.864 219.109C321.405 218.257 325.329 217.416 329.578 216.505C351.451 211.816 381.951 205.279 413.264 185.865L422.277 204.917C396.481 232.336 369.188 255.398 341.387 260.021Z" fill="#C5A6F8"/>
<path fill-rule="evenodd" clip-rule="evenodd" d="M589.571 109.926C581.488 114.798 573.545 117.152 569.817 116.191C560.469 113.781 559.609 79.5812 566.843 66.0984C574.076 52.6155 611.263 46.7388 613.137 73.4526C613.787 82.7241 609.894 90.9983 604.142 97.75L614.456 145.821H584.497L589.571 109.926Z" fill="#B28B67"/>
<path fill-rule="evenodd" clip-rule="evenodd" d="M581.388 54.9114C584.932 54.3295 594.473 53.9294 596.232 53.9296C597.357 53.9296 598.575 54.1869 599.241 53.153C599.787 52.3063 599.587 50.8744 599.75 49.8918C599.939 48.7505 600.207 47.6238 600.479 46.5C601.251 43.3022 602.42 40.2598 604.054 37.4034C607.122 32.0445 611.616 27.8468 617.289 25.4042C623.554 22.7071 630.643 22.0896 637.382 22.6366C644.593 23.2219 651.121 25.6059 657.93 27.8494C664.418 29.9872 671.214 30.8287 678 29.7847C684.837 28.733 690.003 25.0219 695.771 21.4996C701.674 17.8937 708.421 15.5353 715.401 16.0774C721.916 16.5836 727.921 19.2776 733.308 22.8763C738.348 26.2433 742.507 30.2943 744.855 35.9957C747.381 42.1288 747.379 48.8608 743.225 54.2809C737.204 62.1375 726.027 64.1692 716.728 63.9672C711.349 63.8507 706.066 62.8674 700.988 61.0788C694.215 58.6932 688.363 54.65 682.027 51.3695C679.054 49.8301 675.98 48.5658 672.759 47.6551C669.633 46.771 666.554 46.3654 663.723 48.2566C660.729 50.2573 658.046 52.2226 654.62 53.4751C651.334 54.6766 647.854 55.3487 644.352 55.3215C637.541 55.2689 630.826 53.1434 624.21 51.7197C618.815 50.559 613.042 49.4021 607.542 50.5179C605.247 50.9836 601.895 51.945 601.066 54.3336C615.018 56.8658 620.497 74.1453 616.564 86.83C614.441 93.6764 601.681 101.68 596.719 98.0805C593.576 95.8003 595.484 92.8068 596.719 90.8306C599.084 87.0462 599.893 82.185 595.517 79.5502C591.742 77.2778 587.773 82.6741 587.698 82.6682C586.661 82.5863 577.696 77.509 571.519 70.0999C565.426 70.4616 564.501 66.4381 565.956 63.1476C567.411 59.8571 576.493 55.716 581.388 54.9114Z" fill="#CF3E2A"/>
<path fill-rule="evenodd" clip-rule="evenodd" d="M634.386 251.232L589.196 410.12L556.226 527.23H532.178L567.214 251.232H634.386Z" fill="#191847"/>
<path fill-rule="evenodd" clip-rule="evenodd" d="M646.471 251.232C647.516 333.125 651.08 377.791 652.178 385.232C653.275 392.672 669.869 440.005 701.959 527.23H677.048C636.194 443.552 613.389 396.219 608.632 385.232C603.874 374.244 589.192 329.577 567.079 251.232H646.471Z" fill="#2F3676"/>
<path fill-rule="evenodd" clip-rule="evenodd" d="M704.186 549.709L702.939 523.483L676.764 523.483C658.147 536.596 628.153 544.713 628.153 544.713V549.709H675.518L691.721 547.211V549.709H704.186Z" fill="#191847"/>
<path fill-rule="evenodd" clip-rule="evenodd" d="M559.6 549.709L558.353 523.483L532.178 523.483C513.561 536.596 483.567 544.713 483.567 544.713V549.709H530.932L547.135 547.211V549.709H559.6Z" fill="#191847"/>
<path fill-rule="evenodd" clip-rule="evenodd" d="M492.103 279.459L527.471 245.014L539.21 265.298L502.435 286.948C493.212 301.449 487.796 307.715 486.186 305.745C484.829 304.085 485.452 302.265 486.025 300.588C486.472 299.282 486.889 298.063 486.317 297.075C485.011 294.818 477.628 296.113 470.675 297.64C463.721 299.167 465.331 295.757 466.809 293.978C473.382 288.682 481.813 283.842 492.103 279.459ZM706.042 301.325C701.388 294.499 679.004 224.735 679.004 224.735L653.186 228.466C653.186 228.466 687.947 302.2 690.516 306.65C693.855 312.43 690.898 321.924 688.894 328.363C688.584 329.359 688.296 330.282 688.058 331.106C692.266 332.318 693.867 329.913 695.555 327.378C697.462 324.515 699.48 321.485 705.489 323.312C707.81 324.018 710.041 324.924 712.22 325.81C719.747 328.87 726.661 331.681 734.606 325.102C735.865 324.059 736.927 320.649 732.925 318.663C722.955 313.716 708.317 304.663 706.042 301.325Z" fill="#B28B67"/>
<path fill-rule="evenodd" clip-rule="evenodd" d="M590.387 126.851L579.441 126.523C544.588 166.296 537.532 234.285 493.811 275.921L507.546 288.754C590.415 266.479 600.055 183.403 590.387 126.851Z" fill="#E87613"/>
<path fill-rule="evenodd" clip-rule="evenodd" d="M655.828 254.391C655.828 254.391 591.539 263.426 561.25 267.683C556.928 268.291 556.867 261.947 557.05 258.716C559.161 221.424 581.811 178.363 574.553 126.722L601.234 118.618C628.89 151.672 642.962 195.177 655.828 254.391Z" fill="#DDE3E9"/>
<path fill-rule="evenodd" clip-rule="evenodd" d="M670.104 278.809C675.787 288.402 681.205 296.708 686.092 302.986L706.376 300.136C698.659 229.395 664.328 178.952 637.379 149.415C642.293 148.364 646.482 145.661 648.598 140.161C656.045 120.8 651.054 111.418 639.941 109.665C633.83 108.701 628.491 110.695 622.099 113.083C616.869 115.037 610.934 117.253 603.296 118.328C603.293 118.328 603.291 118.328 603.288 118.329C602.548 118.433 601.881 118.577 601.283 118.758L592.303 120.546C592.303 120.546 573.024 250.055 595.348 289.315L670.104 278.809Z" fill="#FF9B21"/>
<path fill-rule="evenodd" clip-rule="evenodd" d="M670.104 278.809C662.648 266.222 654.736 251.419 646.967 236.075C647.413 254.113 646.506 272.419 642.164 282.736L670.104 278.809Z" fill="black" fill-opacity="0.1"/>
<path fill-rule="evenodd" clip-rule="evenodd" d="M188.607 212.999C196.863 217.979 204.975 220.385 208.783 219.402C218.331 216.94 219.209 181.984 211.821 168.204C204.433 154.424 166.453 148.417 164.538 175.721C163.874 185.197 167.85 193.654 173.725 200.554L163.191 249.686H193.789L188.607 212.999Z" fill="#D4A181"/>
<path fill-rule="evenodd" clip-rule="evenodd" d="M174.666 169.309C192.323 169.435 204.608 168.691 211.639 166.757C211.318 160.769 205.097 153.999 188.69 153.999C170.436 153.999 160.642 164.646 160.642 176.964C160.642 188.217 167.881 201.923 173.391 202.48C174.819 202.168 176.038 200.447 177.25 198.075C174.98 196.97 173.391 194.366 173.391 190.998C173.391 187.76 176.245 184.619 179.766 184.619C181.05 184.619 182.245 185.037 183.246 185.725C185.559 181.997 188.458 179.212 192.515 179.516L189.965 171.861L174.666 170.585V169.309Z" fill="#191847"/>
<path fill-rule="evenodd" clip-rule="evenodd" d="M313.899 452.124C311.526 478.076 313.897 533.859 315.173 549.951C315.976 560.064 329.749 557.416 331.034 549.322C331.252 547.951 332.14 543.134 333.464 535.946C339.957 500.701 356.952 408.458 356.982 386.028C356.995 375.744 334.114 367.519 324.96 379.943C317.434 374.653 306.751 373.235 300.165 383.919C295.179 392.007 283.333 414.97 270.698 441.783C259.63 465.273 242.335 522.295 242.335 522.295L257.018 529.008C257.018 529.008 293.287 470.653 316.124 429.74C315.366 436.78 314.612 444.318 313.899 452.124Z" fill="#D4A181"/>
<path fill-rule="evenodd" clip-rule="evenodd" d="M243.384 501.184L293.779 381.718C305.852 362.284 339.701 385.673 335.584 396.945C326.237 422.535 278.7 505.38 275.915 513.005L243.384 501.184Z" fill="#1F28CF"/>
<path fill-rule="evenodd" clip-rule="evenodd" d="M358.256 395.356C358.256 429.218 343.424 508.815 343.414 516.271L307.483 515.059C307.483 515.059 316.904 411.252 315.429 410.548C313.217 409.493 224.722 422.805 198.182 423.81C159.91 425.26 144.077 401.764 142.792 357.176L216.927 357.176C216.927 357.176 312.014 368.534 341.917 372.975C354.719 374.877 358.256 386.028 358.256 395.356Z" fill="#2B44FF"/>
<path fill-rule="evenodd" clip-rule="evenodd" d="M243.652 517.653C242.733 516.926 241.382 517.079 240.722 518.046C239.201 520.273 236.768 524.069 236.204 526.33C235.37 529.679 234.884 536.381 234.884 536.381C238.766 537.35 304.657 553.79 304.657 553.79C304.657 553.79 309.618 545.471 303.938 543.291C298.257 541.112 294.525 539.566 294.525 539.566L265.477 516.834C265.033 516.486 264.39 516.574 264.056 517.028L260.543 521.796C260.543 521.796 254.487 522.975 251.096 522.129C248.861 521.571 245.609 519.203 243.652 517.653Z" fill="#1A4056"/>
<path fill-rule="evenodd" clip-rule="evenodd" d="M316.212 529.212C315.145 528.729 313.871 529.205 313.464 530.303C312.527 532.831 311.083 537.104 311.083 539.434C311.083 542.885 312.233 549.506 312.233 549.506C316.233 549.506 384.141 549.506 384.141 549.506C384.141 549.506 386.944 540.233 380.905 539.494C374.866 538.754 370.872 538.158 370.872 538.158L337.191 523.133C336.676 522.903 336.074 523.144 335.859 523.665L333.603 529.142C333.603 529.142 328.012 531.752 324.517 531.752C322.214 531.752 318.486 530.242 316.212 529.212Z" fill="#1A4056"/>
<rect x="312.358" y="549.506" width="67.5715" height="8.93079" rx="4" fill="#2F3676"/>
<path d="M126.218 374.511C126.218 368.988 130.695 364.511 136.218 364.511H278.135C283.658 364.511 288.135 368.988 288.135 374.511V439.785H130.218C128.009 439.785 126.218 437.994 126.218 435.785V374.511Z" fill="#2F3676"/>
<path fill-rule="evenodd" clip-rule="evenodd" d="M275.386 364.511H280.516C285.414 364.511 289.591 368.059 290.384 372.892L318.733 545.679H305.11" fill="#2F3676"/>
<path fill-rule="evenodd" clip-rule="evenodd" d="M312.358 571.195C325.033 571.195 335.307 560.913 335.307 548.23C335.307 535.547 325.033 525.265 312.358 525.265C299.684 525.265 289.41 535.547 289.41 548.23C289.41 560.913 299.684 571.195 312.358 571.195Z" fill="#191847"/>
<path fill-rule="evenodd" clip-rule="evenodd" d="M239.687 471.68C239.687 525.232 196.305 568.643 142.792 568.643C89.2783 568.643 45.897 525.232 45.897 471.68C45.897 418.129 89.2783 374.717 142.792 374.717C196.305 374.717 239.687 418.129 239.687 471.68ZM221.838 471.68C221.838 515.367 186.448 550.782 142.792 550.782C99.1361 550.782 63.746 515.367 63.746 471.68C63.746 427.994 99.1361 392.579 142.792 392.579C186.448 392.579 221.838 427.994 221.838 471.68Z" fill="#191847"/>
<rect x="137.692" y="387.476" width="10.1994" height="168.409" fill="#191847"/>
<rect width="10.203" height="168.35" rx="2" transform="matrix(0.706859 0.707355 -0.706859 0.707355 198.686 408.53)" fill="#191847"/>
<rect x="226.938" y="466.577" width="10.2066" height="168.291" rx="2" transform="rotate(90 226.938 466.577)" fill="#191847"/>
<rect width="10.203" height="168.35" rx="2" transform="matrix(-0.706859 0.707355 -0.706859 -0.707355 205.898 527.614)" fill="#191847"/>
<path fill-rule="evenodd" clip-rule="evenodd" d="M320.623 298.072L270.285 304.943L279.316 327.511L320.161 311.307C337.767 313.045 346.28 312.627 345.701 310.052C345.212 307.88 343.341 307.225 341.617 306.621C340.275 306.151 339.021 305.712 338.581 304.612C337.576 302.101 343.299 296.896 348.94 292.19C354.58 287.485 350.794 286.619 348.414 286.689C339.956 288.673 330.693 292.467 320.623 298.072ZM75.7277 421.806C79.4639 414.221 112.155 316.603 112.155 316.603L140.073 316.708C140.073 316.708 94.1539 420.114 92.1871 424.992C89.6322 431.328 93.972 440.534 96.9148 446.776C97.37 447.742 97.7919 448.636 98.1495 449.439C94.0663 451.267 92.1049 449.057 90.037 446.727C87.7014 444.095 85.2301 441.311 79.4123 444.019C77.1646 445.066 75.0377 446.303 72.9597 447.512C65.7818 451.687 59.1879 455.522 50.2177 449.984C48.7956 449.106 47.2372 445.799 51.0025 443.216C60.3831 436.779 73.9012 425.514 75.7277 421.806Z" fill="#D4A181"/>
<path fill-rule="evenodd" clip-rule="evenodd" d="M188.626 227.997L210.485 229.454C215.868 278.192 245.191 308.977 310.843 298.555L319.565 361.319C258.203 369.255 204.389 344.671 193.36 278.11C190.505 260.879 188.25 242.947 188.626 227.997Z" fill="#AFB9C5"/>
<path fill-rule="evenodd" clip-rule="evenodd" d="M79.5581 409.165C94.7346 328.359 126.767 265.843 175.655 221.618H177.753H177.824L177.842 221.638L210.96 229.228C210.96 269.039 219.811 298.786 228.32 327.384C231.995 339.734 235.606 351.87 238.412 364.511H148.968C147.708 378.992 146.934 393.877 146.531 409.165H79.5581Z" fill="#C5CFD6"/>
<path fill-rule="evenodd" clip-rule="evenodd" d="M148.967 364.511C151.533 335.027 156.113 307.212 163.686 281.068C162.026 309.027 161.565 343.712 167.147 364.511H148.967Z" fill="black" fill-opacity="0.1"/>
</svg>
