<svg width="40" height="40" viewBox="0 0 40 40" fill="none" xmlns="http://www.w3.org/2000/svg">
<circle cx="20" cy="20" r="20" transform="rotate(180 20 20)" fill="#0E673F"/>
<path d="M25.2497 21.9463C24.8543 21.5352 24.3774 21.3155 23.8719 21.3155C23.3706 21.3155 22.8896 21.5312 22.4779 21.9423L21.1898 23.2244C21.0838 23.1674 20.9778 23.1145 20.8759 23.0616C20.7291 22.9883 20.5906 22.9191 20.4723 22.8459C19.2658 22.0807 18.1693 21.0835 17.1176 19.7932C16.6081 19.1501 16.2657 18.6088 16.017 18.0593C16.3513 17.754 16.6611 17.4365 16.9627 17.1313C17.0768 17.0173 17.191 16.8993 17.3051 16.7853C18.1611 15.9306 18.1611 14.8235 17.3051 13.9687L16.1923 12.8575C16.0659 12.7314 15.9355 12.6011 15.8132 12.4709C15.5686 12.2185 15.3118 11.958 15.0469 11.7138C14.6515 11.3231 14.1786 11.1155 13.6813 11.1155C13.184 11.1155 12.703 11.3231 12.2954 11.7138C12.2913 11.7179 12.2913 11.7179 12.2872 11.7219L10.9013 13.118C10.3796 13.639 10.082 14.274 10.0168 15.0107C9.91894 16.1992 10.2695 17.3063 10.5385 18.0308C11.1989 19.8095 12.1853 21.4579 13.6569 23.2244C15.4423 25.3531 17.5904 27.0341 20.0443 28.2186C20.9819 28.6622 22.2333 29.1873 23.6314 29.2768C23.717 29.2809 23.8067 29.285 23.8882 29.285C24.8299 29.285 25.6206 28.9471 26.2402 28.2755C26.2443 28.2674 26.2525 28.2633 26.2565 28.2552C26.4685 27.9988 26.7131 27.7668 26.9699 27.5185C27.1452 27.3516 27.3245 27.1766 27.4998 26.9934C27.9033 26.5742 28.1153 26.0858 28.1153 25.5851C28.1153 25.0804 27.8993 24.5961 27.4876 24.189L25.2497 21.9463ZM26.709 26.2323C26.7049 26.2323 26.7049 26.2364 26.709 26.2323C26.55 26.4032 26.387 26.5579 26.2117 26.7289C25.9467 26.9812 25.6777 27.2458 25.425 27.5429C25.0133 27.9825 24.5282 28.1901 23.8923 28.1901C23.8312 28.1901 23.766 28.1901 23.7048 28.186C22.4942 28.1087 21.3691 27.6365 20.5253 27.2336C18.2182 26.1183 16.1923 24.535 14.5088 22.5284C13.1188 20.8555 12.1894 19.3088 11.5739 17.6482C11.1948 16.6347 11.0562 15.8451 11.1174 15.1002C11.1581 14.624 11.3416 14.2292 11.6799 13.8914L13.0699 12.5034C13.2696 12.3162 13.4816 12.2144 13.6895 12.2144C13.9463 12.2144 14.1542 12.3691 14.2846 12.4994C14.2887 12.5034 14.2928 12.5075 14.2968 12.5116C14.5455 12.7436 14.7819 12.9837 15.0306 13.2401C15.1569 13.3704 15.2874 13.5006 15.4178 13.6349L16.5306 14.7461C16.9627 15.1776 16.9627 15.5764 16.5306 16.0079C16.4124 16.1259 16.2983 16.244 16.1801 16.3579C15.8377 16.708 15.5116 17.0336 15.1569 17.3511C15.1488 17.3592 15.1406 17.3633 15.1365 17.3714C14.786 17.7214 14.8512 18.0633 14.9246 18.2954C14.9287 18.3076 14.9327 18.3198 14.9368 18.332C15.2262 19.0321 15.6338 19.6914 16.2534 20.477L16.2575 20.4811C17.3826 21.8649 18.5687 22.9435 19.8772 23.7698C20.0443 23.8756 20.2155 23.9611 20.3786 24.0425C20.5253 24.1158 20.6639 24.185 20.7821 24.2582C20.7984 24.2664 20.8148 24.2786 20.8311 24.2867C20.9696 24.3559 21.1001 24.3885 21.2346 24.3885C21.5729 24.3885 21.7849 24.1768 21.8542 24.1076L23.2483 22.7156C23.3869 22.5772 23.607 22.4103 23.8638 22.4103C24.1165 22.4103 24.3244 22.5691 24.4508 22.7075C24.4548 22.7115 24.4548 22.7115 24.4589 22.7156L26.7049 24.9583C27.1248 25.3735 27.1248 25.8008 26.709 26.2323Z" fill="white"/>
<path d="M20.4237 14.5873C21.4916 14.7664 22.4618 15.2711 23.2363 16.0445C24.0108 16.8178 24.5121 17.7865 24.6956 18.8529C24.7404 19.1216 24.9728 19.3088 25.2377 19.3088C25.2703 19.3088 25.2989 19.3047 25.3315 19.3007C25.6331 19.2518 25.8329 18.9669 25.7839 18.6657C25.5638 17.3754 24.9524 16.1992 24.0189 15.2671C23.0855 14.335 21.9074 13.7245 20.6152 13.5047C20.3136 13.4558 20.0323 13.6553 19.9794 13.9524C19.9264 14.2495 20.122 14.5385 20.4237 14.5873Z" fill="white"/>
<path d="M29.2773 18.507C28.9145 16.3823 27.9118 14.449 26.371 12.9104C24.8301 11.3719 22.8939 10.3706 20.7661 10.0084C20.4686 9.95546 20.1873 10.159 20.1343 10.4561C20.0854 10.7573 20.2851 11.0381 20.5868 11.0911C22.4863 11.4126 24.2187 12.3121 25.5965 13.6838C26.9743 15.0595 27.871 16.7894 28.1931 18.6861C28.2379 18.9547 28.4702 19.1419 28.7352 19.1419C28.7678 19.1419 28.7963 19.1379 28.8289 19.1338C29.1265 19.089 29.3303 18.8041 29.2773 18.507Z" fill="white"/>
</svg>
