<svg width="48" height="21" xmlns="http://www.w3.org/2000/svg" xmlns:xlink="http://www.w3.org/1999/xlink" overflow="hidden"><defs><clipPath id="clip0"><path d="M527 200 575 200 575 221 527 221Z" fill-rule="evenodd" clip-rule="evenodd"/></clipPath><clipPath id="clip1"><path d="M554 200 575 200 575 220 554 220Z" fill-rule="evenodd" clip-rule="evenodd"/></clipPath><clipPath id="clip2"><path d="M554 200 575 200 575 220 554 220Z" fill-rule="evenodd" clip-rule="evenodd"/></clipPath><clipPath id="clip3"><path d="M554 200 575 200 575 220 554 220Z" fill-rule="evenodd" clip-rule="evenodd"/></clipPath><clipPath id="clip4"><path d="M527 203 549 203 549 218 527 218Z" fill-rule="evenodd" clip-rule="evenodd"/></clipPath><clipPath id="clip5"><path d="M527 203 549 203 549 218 527 218Z" fill-rule="evenodd" clip-rule="evenodd"/></clipPath><clipPath id="clip6"><path d="M527 203 549 203 549 218 527 218Z" fill-rule="evenodd" clip-rule="evenodd"/></clipPath></defs><g clip-path="url(#clip0)" transform="translate(-527 -200)"><g clip-path="url(#clip1)"><g clip-path="url(#clip2)"><g clip-path="url(#clip3)"><path d="M17 2 15 2 15 1C15 0.734784 14.8946 0.48043 14.7071 0.292893 14.5196 0.105357 14.2652 0 14 0 13.7348 0 13.4804 0.105357 13.2929 0.292893 13.1054 0.48043 13 0.734784 13 1L13 2 7 2 7 1C7 0.734784 6.89464 0.48043 6.70711 0.292893 6.51957 0.105357 6.26522 0 6 0 5.73478 0 5.48043 0.105357 5.29289 0.292893 5.10536 0.48043 5 0.734784 5 1L5 2 3 2C2.20435 2 1.44129 2.31607 0.87868 2.87868 0.316071 3.44129 0 4.20435 0 5L0 17C0 17.7956 0.316071 18.5587 0.87868 19.1213 1.44129 19.6839 2.20435 20 3 20L17 20C17.7956 20 18.5587 19.6839 19.1213 19.1213 19.6839 18.5587 20 17.7956 20 17L20 5C20 4.20435 19.6839 3.44129 19.1213 2.87868 18.5587 2.31607 17.7956 2 17 2ZM18 17C18 17.2652 17.8946 17.5196 17.7071 17.7071 17.5196 17.8946 17.2652 18 17 18L3 18C2.73478 18 2.48043 17.8946 2.29289 17.7071 2.10536 17.5196 2 17.2652 2 17L2 10 18 10 18 17ZM18 8 2 8 2 5C2 4.73478 2.10536 4.48043 2.29289 4.29289 2.48043 4.10536 2.73478 4 3 4L5 4 5 5C5 5.26522 5.10536 5.51957 5.29289 5.70711 5.48043 5.89464 5.73478 6 6 6 6.26522 6 6.51957 5.89464 6.70711 5.70711 6.89464 5.51957 7 5.26522 7 5L7 4 13 4 13 5C13 5.26522 13.1054 5.51957 13.2929 5.70711 13.4804 5.89464 13.7348 6 14 6 14.2652 6 14.5196 5.89464 14.7071 5.70711 14.8946 5.51957 15 5.26522 15 5L15 4 17 4C17.2652 4 17.5196 4.10536 17.7071 4.29289 17.8946 4.48043 18 4.73478 18 5L18 8Z" transform="matrix(1.05 0 -0 1 554 200)"/></g></g></g><g clip-path="url(#clip4)"><g clip-path="url(#clip5)"><g clip-path="url(#clip6)"><path d="M16.875 3.75 13.125 7.5 15.9375 7.5C15.9375 10.6031 13.4156 13.125 10.3125 13.125 9.36562 13.125 8.46562 12.8906 7.6875 12.4688L6.31875 13.8375C7.47187 14.5688 8.84063 15 10.3125 15 14.4563 15 17.8125 11.6438 17.8125 7.5L20.625 7.5 16.875 3.75ZM4.6875 7.5C4.6875 4.39687 7.20937 1.875 10.3125 1.875 11.2594 1.875 12.1594 2.10938 12.9375 2.53125L14.3063 1.1625C13.1531 0.43125 11.7844 0 10.3125 0 6.16875 0 2.8125 3.35625 2.8125 7.5L0 7.5 3.75 11.25 7.5 7.5 4.6875 7.5Z" transform="matrix(1.06667 0 -0 1 527 203)"/></g></g></g></g></svg>