<svg width="40" height="40" viewBox="0 0 40 40" fill="none" xmlns="http://www.w3.org/2000/svg">
<path d="M20 40C31.0457 40 40 31.0457 40 20C40 8.95431 31.0457 0 20 0C8.95431 0 0 8.95431 0 20C0 31.0457 8.95431 40 20 40Z" fill="#25D366"/>
<path fill-rule="evenodd" clip-rule="evenodd" d="M20.667 31.1335C18.667 31.1335 16.7337 30.6002 15.0003 29.6668L8.66699 31.3335L10.3337 25.2002C9.26699 23.4002 8.73366 21.3335 8.73366 19.2668C8.80033 12.6668 14.1337 7.3335 20.667 7.3335C23.867 7.3335 26.867 8.60016 29.067 10.8002C31.3337 13.0668 32.5337 16.0668 32.5337 19.2002C32.5337 25.8002 27.2003 31.1335 20.667 31.1335ZM15.267 27.5335L15.6003 27.7335C17.1337 28.6668 18.867 29.1335 20.6003 29.1335C26.067 29.1335 30.467 24.6668 30.467 19.2668C30.467 16.6002 29.467 14.1335 27.6003 12.2668C25.8003 10.4002 23.3337 9.3335 20.667 9.3335C15.2003 9.3335 10.8003 13.8002 10.8003 19.2002C10.8003 21.0668 11.3337 22.8668 12.3337 24.4668L12.6003 24.8668L11.6003 28.5335L15.267 27.5335ZM26.667 22.0668C26.6003 21.9335 26.4003 21.8668 26.067 21.7335C25.8003 21.6002 24.3337 20.8668 24.067 20.7335C23.8003 20.6668 23.6003 20.6002 23.4003 20.8668C23.2003 21.1335 22.6003 21.8668 22.467 22.0002C22.267 22.2002 22.1337 22.2002 21.8003 22.0668C21.5337 21.9335 20.5337 21.6002 19.4003 20.6002C18.5337 19.8002 17.9337 18.8668 17.7337 18.5335C17.5337 18.2668 17.7337 18.0668 17.867 17.9335C18.0003 17.8002 18.1337 17.6002 18.3337 17.4002C18.467 17.2002 18.5337 17.1335 18.6003 16.9335C18.667 16.7335 18.667 16.5335 18.6003 16.4002C18.5337 16.2668 17.9337 14.8002 17.667 14.2002C17.4003 13.6002 17.2003 13.6668 17.0003 13.6668C16.8003 13.6668 16.6003 13.6668 16.4003 13.6668C16.2003 13.6668 15.867 13.7335 15.6003 14.0668C15.3337 14.3335 14.5337 15.0668 14.5337 16.5335C14.5337 18.0002 15.6003 19.4002 15.7337 19.6002C15.867 19.8002 17.8003 22.8002 20.8003 24.0668C21.5337 24.4002 22.067 24.5335 22.467 24.6668C23.2003 24.8668 23.8003 24.8668 24.3337 24.8002C24.9337 24.7335 26.067 24.0668 26.3337 23.4002C26.7337 22.8002 26.7337 22.2002 26.667 22.0668Z" fill="#FDFDFD"/>
</svg>
