<svg width="24" height="24" viewBox="0 0 24 24" fill="none" xmlns="http://www.w3.org/2000/svg">
<path d="M12 24C5.38667 24 0 18.6133 0 12C0 5.38667 5.38667 0 12 0C18.6133 0 24 5.38667 24 12C24 18.6133 18.6133 24 12 24ZM12 0.533333C5.65333 0.533333 0.533333 5.65333 0.533333 12C0.533333 18.3467 5.65333 23.4667 12 23.4667C18.3467 23.4667 23.4667 18.3467 23.4667 12C23.4667 5.65333 18.3467 0.533333 12 0.533333Z" fill="#0E673F"/>
<path d="M10.4532 16.88C9.43983 16.88 8.37316 16.6667 7.41316 16.1867C7.35982 16.1867 7.30648 16.1333 7.30648 16.08C6.02648 13.36 6.61317 10.16 8.69317 8.08C10.0265 6.74666 11.7865 6 13.7065 6C14.7198 6 15.7865 6.21333 16.7465 6.69333C16.7998 6.69333 16.8532 6.74667 16.8532 6.8C18.1332 9.52 17.5465 12.72 15.4665 14.8C14.0798 16.1333 12.3198 16.88 10.4532 16.88ZM7.73314 15.76C8.58648 16.1333 9.49316 16.3467 10.4532 16.3467C12.2132 16.3467 13.8132 15.6533 15.0932 14.4267C17.0132 12.5067 17.5465 9.57334 16.4265 7.12C15.5732 6.74667 14.6665 6.53333 13.7065 6.53333C11.9465 6.53333 10.2931 7.22667 9.06648 8.45334C7.14648 10.32 6.61314 13.2533 7.73314 15.76Z" fill="#65AC45"/>
<path d="M7.787 15.9202C7.73367 15.9202 7.62699 15.9202 7.57365 15.8669C7.46699 15.7602 7.46699 15.6002 7.57365 15.4935L16.3737 6.69353C16.4803 6.58686 16.6403 6.58686 16.747 6.69353C16.8537 6.80019 16.8537 6.9602 16.747 7.06687L7.94699 15.8669C7.94699 15.9202 7.89367 15.9202 7.787 15.9202Z" fill="#65AC45"/>
<path d="M6.55995 17.2003C6.50661 17.2003 6.39993 17.2003 6.3466 17.147C6.23993 17.0403 6.23993 16.8803 6.3466 16.7736L7.30659 15.8136C7.41326 15.707 7.57327 15.707 7.67993 15.8136C7.7866 15.9203 7.7866 16.0803 7.67993 16.187L6.71994 17.147C6.66661 17.2003 6.61328 17.2003 6.55995 17.2003Z" fill="#65AC45"/>
<path d="M16.8004 11.7069C16.8004 11.7069 16.7471 11.7069 16.8004 11.7069L12.5338 11.4935C12.3738 11.4935 12.2671 11.3869 12.2671 11.2269C12.2671 11.0669 12.4271 10.9602 12.5338 10.9602L16.8004 11.1735C16.9604 11.1735 17.0671 11.2802 17.0671 11.4402C17.0671 11.5469 16.9071 11.7069 16.8004 11.7069Z" fill="#65AC45"/>
<path d="M15.3077 14.5866C15.3077 14.5866 15.2543 14.5866 15.3077 14.5866L9.65436 14.32C9.49436 14.32 9.3877 14.2133 9.3877 14.0533C9.3877 13.8933 9.49436 13.7866 9.65436 13.7866L15.3077 14.0533C15.4677 14.0533 15.5743 14.16 15.5743 14.32C15.5743 14.48 15.4143 14.5866 15.3077 14.5866Z" fill="#65AC45"/>
<path d="M12.2676 11.2268C12.1076 11.2268 12.0009 11.1201 12.0009 10.9601L11.7876 6.69342C11.7876 6.53342 11.8943 6.42676 12.0543 6.42676C12.2143 6.42676 12.3209 6.53342 12.3209 6.69342L12.5342 10.9601C12.5342 11.1201 12.4276 11.2268 12.2676 11.2268Z" fill="#65AC45"/>
<path d="M9.44056 14.1601C9.28056 14.1601 9.17389 14.0534 9.17389 13.8934L8.90723 8.24006C8.90723 8.08006 9.01389 7.97339 9.17389 7.97339C9.33389 7.97339 9.44056 8.08006 9.44056 8.24006L9.70723 13.8934C9.70723 14.0001 9.60056 14.1601 9.44056 14.1601Z" fill="#65AC45"/>
</svg>
