<svg width="24" height="24" viewBox="0 0 24 24" fill="none" xmlns="http://www.w3.org/2000/svg">
<path d="M12 24C5.38667 24 0 18.6133 0 12C0 5.38667 5.38667 0 12 0C18.6133 0 24 5.38667 24 12C24 18.6133 18.6133 24 12 24ZM12 0.533333C5.65333 0.533333 0.533333 5.65333 0.533333 12C0.533333 18.3467 5.65333 23.4667 12 23.4667C18.3467 23.4667 23.4667 18.3467 23.4667 12C23.4667 5.70667 18.2933 0.533333 12 0.533333Z" fill="#BB6BD9"/>
<path d="M9.28027 7.17334C9.44027 7.01334 9.60029 6.90668 9.76029 6.74668C9.92029 6.58668 10.1336 6.48001 10.3469 6.37334C10.5603 6.26667 10.827 6.16001 11.0936 6.10667C11.3603 6.05334 11.6269 6 11.9469 6C12.3203 6 12.6936 6.05334 13.0136 6.16001C13.3336 6.26668 13.6536 6.42667 13.9203 6.64001C14.1869 6.85334 14.4003 7.12001 14.507 7.44001C14.667 7.76001 14.7203 8.08 14.7203 8.45334C14.7203 8.88 14.667 9.2 14.507 9.52C14.4003 9.84 14.2403 10.1067 14.027 10.32C13.8136 10.5333 13.6003 10.7467 13.3869 10.9067C13.1736 11.0667 12.9603 11.2267 12.7469 11.3867C12.5336 11.5467 12.3736 11.7067 12.2669 11.8133C12.1069 11.9733 12.0536 12.1333 12.0536 12.2933L11.9469 13.6267H11.4136L11.3603 12.24V12.1867C11.3603 11.9733 11.4136 11.76 11.5736 11.6C11.6803 11.44 11.8403 11.28 12.0536 11.12C12.2669 10.96 12.4803 10.8 12.6936 10.64C12.907 10.48 13.1203 10.32 13.3336 10.1067C13.5469 9.89334 13.7069 9.68001 13.8136 9.41335C13.9203 9.14668 14.027 8.82667 14.027 8.45334C14.027 8.18667 13.9736 7.92 13.8669 7.65334C13.7603 7.44 13.6003 7.22667 13.3869 7.06667C13.1736 6.90667 12.9603 6.80001 12.6936 6.69334C12.427 6.58668 12.1603 6.58667 11.8936 6.58667C11.5203 6.58667 11.2003 6.64001 10.9869 6.74668C10.7203 6.85335 10.5069 6.96 10.3469 7.06667C10.1869 7.17333 10.0269 7.28 9.92028 7.38667C9.81361 7.49334 9.76028 7.54668 9.70695 7.54668C9.60028 7.54668 9.54694 7.49334 9.54694 7.44001L9.28027 7.17334ZM10.8803 17.0933C10.8803 16.9867 10.8803 16.88 10.9336 16.8267C10.9869 16.72 11.0403 16.6667 11.0936 16.56C11.147 16.5067 11.2536 16.4533 11.307 16.4C11.4136 16.3467 11.5203 16.3467 11.627 16.3467C11.7336 16.3467 11.8403 16.3467 11.8936 16.4C12.0003 16.4533 12.0536 16.5067 12.1603 16.56C12.2136 16.6133 12.2669 16.72 12.3203 16.8267C12.3736 16.9333 12.3736 17.04 12.3736 17.0933C12.3736 17.2 12.3736 17.3067 12.3203 17.4133C12.2669 17.52 12.2136 17.5733 12.1603 17.6267C12.107 17.68 12.0003 17.7333 11.8936 17.7867C11.787 17.84 11.6803 17.84 11.627 17.84C11.4136 17.84 11.2536 17.7867 11.0936 17.6267C10.9336 17.4667 10.8803 17.3067 10.8803 17.0933Z" fill="#BB6BD9"/>
</svg>
