<svg width="24" height="24" viewBox="0 0 24 24" fill="none" xmlns="http://www.w3.org/2000/svg">
<path d="M12 24C5.38667 24 0 18.6133 0 12C0 5.38667 5.38667 0 12 0C18.6133 0 24 5.38667 24 12C24 18.6133 18.6133 24 12 24ZM12 0.533333C5.65333 0.533333 0.533333 5.65333 0.533333 12C0.533333 18.3467 5.65333 23.4667 12 23.4667C18.3467 23.4667 23.4667 18.3467 23.4667 12C23.4667 5.70667 18.3467 0.533333 12 0.533333Z" fill="#EB5757"/>
<path d="M12.0006 10.4C11.8406 10.4 11.7339 10.2934 11.7339 10.1334V6.24006C11.7339 6.08006 11.8406 5.97339 12.0006 5.97339C12.1606 5.97339 12.2672 6.08006 12.2672 6.24006V10.1334C12.2672 10.2934 12.1606 10.4 12.0006 10.4Z" fill="#EB5757"/>
<path d="M11.9998 18.0266C9.0665 18.0266 6.6665 15.6266 6.6665 12.6932C6.6665 10.4532 8.10651 8.42658 10.2398 7.67991C10.3998 7.62658 10.5065 7.67991 10.5599 7.83991C10.6132 7.99991 10.5598 8.10656 10.3998 8.15989C8.47984 8.85323 7.19984 10.6666 7.19984 12.6932C7.19984 15.3599 9.33317 17.4932 11.9998 17.4932C14.6665 17.4932 16.7998 15.3599 16.7998 12.6932C16.7998 10.6666 15.5198 8.85323 13.5998 8.15989C13.4398 8.10656 13.3865 7.94657 13.4398 7.83991C13.4932 7.67991 13.6532 7.62658 13.7599 7.67991C15.8932 8.42658 17.3332 10.4532 17.3332 12.6932C17.3332 15.6266 14.9332 18.0266 11.9998 18.0266Z" fill="#EB5757"/>
</svg>
