<svg width="24" height="24" viewBox="0 0 24 24" fill="none" xmlns="http://www.w3.org/2000/svg">
<path d="M12 24C5.38667 24 0 18.6133 0 12C0 5.38666 5.38667 0 12 0C18.6133 0 24 5.38666 24 12C24 18.6133 18.6133 24 12 24ZM12 0.533334C5.65334 0.533334 0.533334 5.65333 0.533334 12C0.533334 18.3467 5.65334 23.4667 12 23.4667C18.3467 23.4667 23.4667 18.3467 23.4667 12C23.4667 5.65333 18.3467 0.533334 12 0.533334Z" fill="#BB6BD9"/>
<path d="M12.0531 11.3065C10.7731 11.3065 9.75977 10.1332 9.75977 8.69317C9.75977 7.25317 10.7731 6.07983 12.0531 6.07983C13.3331 6.07983 14.3464 7.25317 14.3464 8.69317C14.3464 10.1332 13.3331 11.3065 12.0531 11.3065ZM12.0531 6.61317C11.0931 6.61317 10.2931 7.51984 10.2931 8.69317C10.2931 9.81317 11.0931 10.7732 12.0531 10.7732C13.0131 10.7732 13.8131 9.86651 13.8131 8.69317C13.8131 7.51984 13.0131 6.61317 12.0531 6.61317Z" fill="#BB6BD9"/>
<path d="M15.8937 17.8665H8.10701C7.94701 17.8665 7.84035 17.7598 7.84035 17.5998L7.68035 15.0932C7.62702 14.2932 8.26702 13.3332 9.06702 13.0132C10.987 12.3198 13.067 12.3198 14.9337 13.0132C15.8404 13.3332 16.3737 14.3465 16.3203 15.0932L16.1604 17.5998C16.1604 17.7598 16.0537 17.8665 15.8937 17.8665ZM8.37368 17.3332H15.6804L15.8404 15.0398C15.8937 14.5065 15.4137 13.7598 14.7737 13.4932C13.0137 12.8532 11.0404 12.8532 9.28035 13.4932C8.64035 13.7065 8.21369 14.5065 8.21369 15.0398L8.37368 17.3332Z" fill="#BB6BD9"/>
</svg>
