<svg width="24" height="24" viewBox="0 0 24 24" fill="none" xmlns="http://www.w3.org/2000/svg">
<path d="M12 24C5.38667 24 0 18.6133 0 12C0 5.38667 5.38667 0 12 0C18.6133 0 24 5.38667 24 12C24 18.6133 18.6133 24 12 24ZM12 0.533333C5.65333 0.533333 0.533333 5.65333 0.533333 12C0.533333 18.3467 5.65333 23.4667 12 23.4667C18.3467 23.4667 23.4667 18.3467 23.4667 12C23.4667 5.65333 18.2933 0.533333 12 0.533333Z" fill="#BB6BD9"/>
<path d="M13.8658 18.5065C13.7058 18.5065 13.5991 18.3999 13.5991 18.2399V15.0399C13.5991 14.8799 13.7058 14.7732 13.8658 14.7732H17.0658C17.2258 14.7732 17.3325 14.8799 17.3325 15.0399C17.3325 15.1999 17.2258 15.3065 17.0658 15.3065H14.1325V18.2399C14.1325 18.3999 14.0258 18.5065 13.8658 18.5065Z" fill="#BB6BD9"/>
<path d="M13.8655 18.5067H8.37214C8.21214 18.5067 8.10547 18.4 8.10547 18.24V7.30671C8.10547 7.14671 8.21214 7.04004 8.37214 7.04004H17.0655C17.2255 7.04004 17.3321 7.14671 17.3321 7.30671V15.04C17.3321 15.0934 17.2788 15.2 17.2788 15.2534L14.0788 18.4534C14.0255 18.4534 13.9721 18.5067 13.8655 18.5067ZM8.6388 17.9734H13.7588L16.7988 14.9334V7.57337H8.6388V17.9734Z" fill="#BB6BD9"/>
<path d="M13.3318 9.59974H10.1851C10.0251 9.59974 9.91846 9.49307 9.91846 9.33307C9.91846 9.17307 10.0251 9.06641 10.1851 9.06641H13.3318C13.4918 9.06641 13.5985 9.17307 13.5985 9.33307C13.5985 9.43974 13.4385 9.59974 13.3318 9.59974Z" fill="#BB6BD9"/>
<path d="M15.359 10.8798H10.1324C9.97239 10.8798 9.86572 10.7731 9.86572 10.6131C9.86572 10.4531 9.97239 10.3464 10.1324 10.3464H15.359C15.519 10.3464 15.6257 10.4531 15.6257 10.6131C15.6257 10.7731 15.519 10.8798 15.359 10.8798Z" fill="#BB6BD9"/>
<path d="M15.359 12.1598H10.1324C9.97239 12.1598 9.86572 12.0531 9.86572 11.8931C9.86572 11.7331 9.97239 11.6265 10.1324 11.6265H15.359C15.519 11.6265 15.6257 11.7331 15.6257 11.8931C15.6257 12.0531 15.519 12.1598 15.359 12.1598Z" fill="#BB6BD9"/>
<path d="M12.3718 13.4398H10.1851C10.0251 13.4398 9.91846 13.3332 9.91846 13.1732C9.91846 13.0132 10.0251 12.9065 10.1851 12.9065H12.3718C12.5318 12.9065 12.6385 13.0132 12.6385 13.1732C12.6385 13.3332 12.4785 13.4398 12.3718 13.4398Z" fill="#BB6BD9"/>
<path d="M6.87946 17.2266C6.71946 17.2266 6.61279 17.1199 6.61279 16.9599V6.23994C6.61279 5.81327 6.98613 5.43994 7.41279 5.43994H15.5728C15.7328 5.43994 15.8395 5.54661 15.8395 5.70661C15.8395 5.86661 15.7328 5.97327 15.5728 5.97327H7.41279C7.25279 5.97327 7.14613 6.07994 7.14613 6.23994V16.9599C7.14613 17.1199 7.03946 17.2266 6.87946 17.2266Z" fill="#BB6BD9"/>
</svg>
