<svg width="24" height="24" viewBox="0 0 24 24" fill="none" xmlns="http://www.w3.org/2000/svg">
<path d="M12 24C5.38667 24 0 18.6133 0 12C0 5.38667 5.38667 0 12 0C18.6133 0 24 5.38667 24 12C24 18.6133 18.6133 24 12 24ZM12 0.533333C5.65333 0.533333 0.533333 5.65333 0.533333 12C0.533333 18.3467 5.65333 23.4667 12 23.4667C18.3467 23.4667 23.4667 18.3467 23.4667 12C23.4667 5.65333 18.3467 0.533333 12 0.533333Z" fill="#BB6BD9"/>
<path d="M11.2 16.1599C8.42663 16.1599 6.1333 13.9199 6.1333 11.0933C6.1333 8.31994 8.3733 6.02661 11.2 6.02661C13.9733 6.02661 16.2666 8.26661 16.2666 11.0933C16.2666 13.9199 14.0266 16.1599 11.2 16.1599ZM11.2 6.61328C8.6933 6.61328 6.66663 8.63994 6.66663 11.1466C6.66663 13.6533 8.6933 15.6799 11.2 15.6799C13.7066 15.6799 15.7333 13.6533 15.7333 11.1466C15.7333 8.63994 13.7066 6.61328 11.2 6.61328Z" fill="#BB6BD9"/>
<path d="M8.21302 11.1467H7.67969C7.67969 9.22671 9.27969 7.62671 11.1997 7.62671V8.16004C9.59969 8.10671 8.21302 9.49337 8.21302 11.1467Z" fill="#BB6BD9"/>
<path d="M17.547 17.9198C17.4936 17.9198 17.387 17.9198 17.3336 17.8665L14.4003 14.8798C14.2936 14.7732 14.2936 14.6132 14.4003 14.5065C14.507 14.3998 14.667 14.3998 14.7736 14.5065L17.7603 17.4932C17.867 17.5998 17.867 17.7598 17.7603 17.8665C17.707 17.9198 17.6536 17.9198 17.547 17.9198Z" fill="#BB6BD9"/>
</svg>
