<svg width="24" height="24" viewBox="0 0 24 24" fill="none" xmlns="http://www.w3.org/2000/svg">
<path d="M12 24C5.38667 24 0 18.6133 0 12C0 5.38667 5.38667 0 12 0C18.6133 0 24 5.38667 24 12C24 18.6133 18.6133 24 12 24ZM12 0.533333C5.65333 0.533333 0.533333 5.65333 0.533333 12C0.533333 18.3467 5.65333 23.4667 12 23.4667C18.3467 23.4667 23.4667 18.3467 23.4667 12C23.4667 5.70667 18.2933 0.533333 12 0.533333Z" fill="#BB6BD9"/>
<g clip-path="url(#clip0)">
<path d="M6.25472 16.8C6.20377 16.8 6.10189 16.7491 6.05094 16.7491C6 16.6981 6 16.5962 6 16.5453L6.15283 13.9472C6.15283 13.8962 6.20377 13.8453 6.20377 13.7943L13.9472 6.05094C13.9981 6.05094 14.0491 6 14.1 6C14.1509 6 14.2528 6.05094 14.3038 6.05094L16.7491 8.49623C16.8 8.54717 16.8 8.59811 16.8 8.7C16.8 8.75094 16.7491 8.85283 16.7491 8.90377L9.00566 16.5962C8.95472 16.6472 8.90377 16.6472 8.85283 16.6472L6.25472 16.8ZM6.66226 14.1L6.50943 16.2906L8.7 16.1377L16.1887 8.7L14.1 6.61132L6.66226 14.1Z" fill="#BB6BD9"/>
<path d="M15.17 10.0754C15.119 10.0754 15.0171 10.0754 14.9662 10.0245L12.7756 7.8339C12.6737 7.73201 12.6737 7.57918 12.7756 7.47729C12.8775 7.37541 13.0304 7.37541 13.1322 7.47729L15.3228 9.66786C15.4247 9.76975 15.4247 9.92258 15.3228 10.0245C15.3228 10.0245 15.2209 10.0754 15.17 10.0754Z" fill="#BB6BD9"/>
<path d="M8.038 15.017C7.98706 15.017 7.88517 15.017 7.83423 14.9661C7.73234 14.8642 7.73234 14.7114 7.83423 14.6095L13.8455 8.59814C13.9474 8.49626 14.1003 8.49626 14.2022 8.59814C14.304 8.70003 14.304 8.85286 14.2022 8.95475L8.19083 14.9661C8.13989 15.017 8.08894 15.017 8.038 15.017Z" fill="#BB6BD9"/>
<path d="M6.56038 15.2717C6.50944 15.2717 6.50944 15.2717 6.45849 15.2717C6.40755 15.2717 6.40755 15.2717 6.35661 15.2717L6.30566 16.5453L7.52831 16.4944C7.52831 16.4434 7.52831 16.3925 7.57925 16.3415C7.57925 15.7302 7.12076 15.2717 6.56038 15.2717Z" fill="#BB6BD9"/>
<path d="M17.0546 16.7489H11.349C11.1961 16.7489 11.0942 16.647 11.0942 16.4942C11.0942 16.3414 11.1961 16.2395 11.349 16.2395H17.0546C17.2074 16.2395 17.3093 16.3414 17.3093 16.4942C17.3093 16.5961 17.2074 16.7489 17.0546 16.7489Z" fill="#BB6BD9"/>
</g>
<defs>
<clipPath id="clip0">
<rect x="6" y="6" width="11.3094" height="10.8" fill="white"/>
</clipPath>
</defs>
</svg>
