<svg width="24" height="24" viewBox="0 0 24 24" fill="none" xmlns="http://www.w3.org/2000/svg">
<path d="M12 24C18.6274 24 24 18.6274 24 12C24 5.37258 18.6274 0 12 0C5.37258 0 0 5.37258 0 12C0 18.6274 5.37258 24 12 24Z" fill="#25D366"/>
<path fill-rule="evenodd" clip-rule="evenodd" d="M12.3997 18.6799C11.1997 18.6799 10.0397 18.3599 8.99971 17.7999L5.19971 18.7999L6.19971 15.1199C5.55971 14.0399 5.23971 12.7999 5.23971 11.5599C5.27971 7.5999 8.47971 4.3999 12.3997 4.3999C14.3197 4.3999 16.1197 5.1599 17.4397 6.4799C18.7997 7.8399 19.5197 9.6399 19.5197 11.5199C19.5197 15.4799 16.3197 18.6799 12.3997 18.6799ZM9.15971 16.5199L9.35971 16.6399C10.2797 17.1999 11.3197 17.4799 12.3597 17.4799C15.6397 17.4799 18.2797 14.7999 18.2797 11.5599C18.2797 9.9599 17.6797 8.4799 16.5597 7.3599C15.4797 6.2399 13.9997 5.5999 12.3997 5.5999C9.11971 5.5999 6.47971 8.2799 6.47971 11.5199C6.47971 12.6399 6.79971 13.7199 7.39971 14.6799L7.55971 14.9199L6.95971 17.1199L9.15971 16.5199ZM15.9997 13.2399C15.9597 13.1599 15.8397 13.1199 15.6397 13.0399C15.4797 12.9599 14.5997 12.5199 14.4397 12.4399C14.2797 12.3999 14.1597 12.3599 14.0397 12.5199C13.9197 12.6799 13.5597 13.1199 13.4797 13.1999C13.3597 13.3199 13.2797 13.3199 13.0797 13.2399C12.9197 13.1599 12.3197 12.9599 11.6397 12.3599C11.1197 11.8799 10.7597 11.3199 10.6397 11.1199C10.5197 10.9599 10.6397 10.8399 10.7197 10.7599C10.7997 10.6799 10.8797 10.5599 10.9997 10.4399C11.0797 10.3199 11.1197 10.2799 11.1597 10.1599C11.1997 10.0399 11.1997 9.9199 11.1597 9.8399C11.1197 9.7599 10.7597 8.8799 10.5997 8.5199C10.4397 8.1599 10.3197 8.1999 10.1997 8.1999C10.0797 8.1999 9.95971 8.1999 9.83971 8.1999C9.71971 8.1999 9.51971 8.2399 9.35971 8.4399C9.19971 8.5999 8.71971 9.0399 8.71971 9.9199C8.71971 10.7999 9.35971 11.6399 9.43971 11.7599C9.51971 11.8799 10.6797 13.6799 12.4797 14.4399C12.9197 14.6399 13.2397 14.7199 13.4797 14.7999C13.9197 14.9199 14.2797 14.9199 14.5997 14.8799C14.9597 14.8399 15.6397 14.4399 15.7997 14.0399C16.0397 13.6799 16.0397 13.3199 15.9997 13.2399Z" fill="#FDFDFD"/>
</svg>
